/* XPM */
static char *xpm_[] = {
/* columns rows colors chars-per-pixel */
"32 32 116 2 ",
"   c #261609",
".  c #2C140B",
"X  c #331107",
"o  c #30120A",
"O  c #3E1D0E",
"+  c #271510",
"@  c #2A1413",
"#  c #3E1E12",
"$  c #3C141F",
"%  c #391C1E",
"&  c #0C132F",
"*  c #12112D",
"=  c #0D1232",
"-  c #0B123A",
";  c #3C1323",
":  c #391A23",
">  c #3D1529",
",  c #450E06",
"<  c #4D0C06",
"1  c #470E0A",
"2  c #4B0C09",
"3  c #411C0E",
"4  c #401E11",
"5  c #71181A",
"6  c #562613",
"7  c #5A2512",
"8  c #532815",
"9  c #54271A",
"0  c #74291E",
"q  c #7D3B1E",
"w  c #411121",
"e  c #5F0737",
"r  c #5F0A36",
"t  c #5F0938",
"y  c #68062F",
"u  c #64082E",
"i  c #661B24",
"p  c #691A21",
"a  c #650533",
"s  c #620935",
"d  c #620739",
"f  c #522122",
"g  c #5C2024",
"h  c #592029",
"j  c #742A22",
"k  c #773C23",
"l  c #7C3B22",
"z  c #0F0A4D",
"x  c #150B44",
"c  c #190A42",
"v  c #110B49",
"b  c #84220F",
"n  c #832115",
"m  c #882017",
"M  c #852119",
"N  c #813B1E",
"B  c #9D4F33",
"V  c #A24927",
"C  c #A24D2D",
"Z  c #A24D31",
"A  c #BC5D34",
"S  c #BB5D39",
"D  c #D96D69",
"F  c #D66E71",
"G  c #489848",
"H  c #251D9B",
"J  c #281D9E",
"K  c #22209F",
"L  c #1E1EAC",
"P  c #241EA3",
"I  c #281DA4",
"U  c #221EA9",
"Y  c #1F22A9",
"T  c #2320A1",
"R  c #29418F",
"E  c #264394",
"W  c #294293",
"Q  c #24439A",
"!  c #25439A",
"~  c #24429A",
"^  c #22449A",
"/  c #23449A",
"(  c #23439A",
")  c #3155AC",
"_  c #3355AC",
"`  c #3154AF",
"'  c #2E55B0",
"]  c #2F54B1",
"[  c #2E55B1",
"{  c #2F54B3",
"}  c #2E55B3",
"|  c #2F55B3",
" . c #3153B1",
".. c #3551B0",
"X. c #3054B1",
"o. c #3054B2",
"O. c #3055B3",
"+. c #3353B7",
"@. c #3551B7",
"#. c #3054B5",
"$. c #3154B5",
"%. c #3053B8",
"&. c #3352B9",
"*. c #3053BB",
"=. c #3153BB",
"-. c #3452BA",
";. c #3254B8",
":. c #3054BA",
">. c #3055BA",
",. c #3252BC",
"<. c #F9AC8C",
"1. c #FBAB90",
"2. c #F9AC92",
"3. c #F8AD92",
"4. c #F9AB94",
"5. c #FDAA99",
/* pixels */
"G G G G G G G G G G G G G G G G G G G G G G G G G G G G G G G G ",
"G G G G G G G G G G G G G G G G G G G G G G G G G G G G G G G G ",
"G G G G G G G G G G G G G G   . o . . @ G G G G G G G G G G G G ",
"G G G G G G G G G G G G G . 9 q C B o G G G G G G G G G G G G G ",
"G G G G G G G G G G G G o l N C S q 6 . . + G G G G G G G G G G ",
"G G G G G G G G G G G X C S A C l 7 q B . G G G G G G G G G G G ",
"G G G G G G G G G G . B l 7 q A 7 l Z l o G G G G G G G G G G G ",
"G G G G G G G G G G @ k 6 7 l C q Z N C B . G G G G G G G G G G ",
"G G G G G G G G G G G . o l 6 q C q q 9 .   G G G G G G G G G G ",
"G G G G G G G G G G G G . 9 l l l 8 4 @ G + G G G G G G G G G G ",
"G G G G G G G G G G G G . . 9 l 8 4 8   G G G G G G G G G G G G ",
"G G G G G G G G G G G G G . O 9 4 9 4 @ G G G G G G G G G G G G ",
"G G G G G G G G G G G G G . . 4 . # . G G G G G G G G G G G G G ",
"G G G G G G G G G G G G , @ : @ % @ . , G G G G G G G G G G G G ",
"G G G G G G G G G G G , M v K U T K x m , G G G G G G G G G G G ",
"G G G G G G G G G G G < n v @.T L $.x n < G G G G G G G G G G G ",
"G G G G G G G G G G 2 5 i z { :.:.:.v p 5 1 G G G G G G G G G G ",
"G G G G G G G G G G < n x P *.>.:.-.K c n 1 G G G G G G G G G G ",
"G G G G G G G G G G 2 b x U Y *.,.U U c b 2 G G G G G G G G G G ",
"G G G G G G G G G G y D > H I I T I I w D u G G G G G G G G G G ",
"G G G G G G G G G a 2.2.G > f f f f : G <.1.s G G G G G G G G G ",
"G G G G G G G G G a 4.F = - W W W W - * D 5.r G G G G G G G G G ",
"G G G G G G G G G G s e - W Q ( / Q E - d d G G G G G G G G G G ",
"G G G G G G G G G G G - ` Q Q ( / $.$.) - G G G G G G G G G G G ",
"G G G G G G G G G G = R } } } X.} { } { _ & G G G G G G G G G G ",
"G G G G G G G G G G = - E ' } { {  . .` E = G G G G G G G G G G ",
"G G G G G G G G G G G G & = = = = = = = & G G G G G G G G G G G ",
"G G G G G G G G G G G ; w V j ; ; 0 V ; ; G G G G G G G G G G G ",
"G G G G G G G G G G G ; g 0 g ; w g 0 h ; G G G G G G G G G G G ",
"G G G G G G G G G G G G ; g j ; ; g g ; G G G G G G G G G G G G ",
"G G G G G G G G G G G G ; ; $ G G ; ; ; G G G G G G G G G G G G ",
"G G G G G G G G G G G G G G G G G G G G G G G G G G G G G G G G "
};
