/* XPM */
static char *xpm_[] = {
/* columns rows colors chars-per-pixel */
"32 32 234 2 ",
"   c #489848",
".  c #2D130B",
"X  c #2F130A",
"o  c #30120A",
"O  c #2F1309",
"+  c #2D130C",
"@  c #2B140E",
"#  c #301306",
"$  c #532713",
"%  c #793C26",
"&  c #9B4F31",
"*  c #955134",
"=  c #361105",
"-  c #331206",
";  c #753D28",
":  c #803B1D",
">  c #A04D2E",
",  c #B85D3A",
"<  c #803B1E",
"1  c #532714",
"2  c #2F1206",
"3  c #29140C",
"4  c #2C130E",
"5  c #311102",
"6  c #985139",
"7  c #B75F3C",
"8  c #BA5D38",
"9  c #A54E29",
"0  c #803C1E",
"q  c #5C250E",
"w  c #7B3D21",
"e  c #925438",
"r  c #311107",
"t  c #2E1109",
"y  c #965237",
"u  c #80391E",
"i  c #5E250E",
"p  c #81381D",
"a  c #B65C3A",
"s  c #5E220E",
"d  c #7B3B24",
"f  c #9C4F33",
"g  c #7F3A1F",
"h  c #361005",
"j  c #301309",
"k  c #753F24",
"l  c #562714",
"z  c #592613",
"x  c #7B3C24",
"c  c #9D502E",
"v  c #803B1F",
"b  c #9B5135",
"n  c #833A1D",
"m  c #9D4E30",
"M  c #955138",
"N  c #311205",
"B  c #2E1309",
"V  c #331008",
"C  c #723D25",
"Z  c #5C250D",
"A  c #7C3C20",
"S  c #9E4E2E",
"D  c #7F3B1B",
"F  c #7B3C23",
"G  c #592512",
"H  c #360F06",
"J  c #2C150B",
"K  c #2D1208",
"L  c #502815",
"P  c #783E25",
"I  c #7E3A1E",
"U  c #7C3C22",
"Y  c #57250E",
"T  c #451C0C",
"R  c #2F1307",
"E  c #2C140D",
"W  c #2C1209",
"Q  c #542713",
"!  c #783C27",
"~  c #572615",
"^  c #431B0C",
"/  c #4E2818",
"(  c #2C1608",
")  c #3F1B0E",
"_  c #532818",
"`  c #401E0D",
"'  c #4D2719",
"]  c #401D13",
"[  c #2A150D",
"{  c #2B140D",
"}  c #2E1408",
"|  c #3E1E0F",
" . c #321206",
".. c #3C1A11",
"X. c #2F120C",
"o. c #4D0D07",
"O. c #2D1211",
"+. c #351E1E",
"@. c #2D1316",
"#. c #361C1E",
"$. c #2D1315",
"%. c #2A1212",
"&. c #480E08",
"*. c #4E0C04",
"=. c #7A2519",
"-. c #1B0A36",
";. c #24228B",
":. c #261E94",
">. c #291F96",
",. c #27208D",
"<. c #1A093D",
"1. c #79261E",
"2. c #520A05",
"3. c #500B04",
"4. c #7E211B",
"5. c #170941",
"6. c #394EB8",
"7. c #1F20A8",
"8. c #1D21A7",
"9. c #374FBA",
"0. c #120A46",
"q. c #7B241E",
"w. c #560B03",
"e. c #4C0C05",
"r. c #671C22",
"t. c #140849",
"y. c #3553B2",
"u. c #3452B9",
"i. c #3254BC",
"p. c #3254B7",
"a. c #0F0950",
"s. c #661D26",
"d. c #832217",
"f. c #4D0C02",
"g. c #470D0B",
"h. c #1D0938",
"j. c #222193",
"k. c #3551B9",
"l. c #3055B9",
"z. c #2F55B7",
"x. c #3551BD",
"c. c #211F9B",
"v. c #1D073D",
"b. c #CC7270",
"n. c #100B48",
"m. c #231E9E",
"M. c #1B21A5",
"N. c #3352BF",
"B. c #3551BE",
"V. c #1923A4",
"C. c #251CA6",
"Z. c #150B46",
"A. c #F2ABA0",
"S. c #FAAB94",
"D. c #6B052F",
"F. c #351736",
"G. c #2C1D8E",
"H. c #281E9D",
"J. c #251F98",
"K. c #261F9A",
"L. c #271F9B",
"P. c #2B1F91",
"I. c #331632",
"U. c #F7AF95",
"Y. c #FCAB94",
"T. c #6A052F",
"R. c #130F34",
"E. c #311838",
"W. c #492134",
"Q. c #4D2231",
"!. c #4B2233",
"~. c #492234",
"^. c #341938",
"/. c #170D2C",
"(. c #C47778",
"). c #FDA99A",
"_. c #6B0532",
"`. c #08143D",
"'. c #2A4388",
"]. c #2B4289",
"[. c #2F4185",
"{. c #2E4285",
"}. c #2D4285",
"|. c #2E4287",
" X c #2D418A",
".X c #2A4087",
"XX c #130E38",
"oX c #580E3A",
"OX c #081338",
"+X c #3754A2",
"@X c #2D54AF",
"#X c #24459C",
"$X c #244396",
"%X c #244496",
"&X c #244498",
"*X c #23459D",
"=X c #3352B1",
"-X c #3853A6",
";X c #110F3A",
":X c #08133A",
">X c #3553A5",
",X c #2F54AF",
"<X c #3154B1",
"1X c #2F55B4",
"2X c #3055B4",
"3X c #3154B5",
"4X c #2E54B5",
"5X c #2E54B4",
"6X c #3353AB",
"7X c #08123F",
"8X c #09133B",
"9X c #081143",
"0X c #3453A7",
"qX c #2E55B1",
"wX c #2F55B0",
"eX c #3054B0",
"rX c #3054AF",
"tX c #2F55AF",
"yX c #2F55AB",
"uX c #081345",
"iX c #35162C",
"pX c #0E123A",
"aX c #0B113B",
"sX c #0B113C",
"dX c #061340",
"fX c #071441",
"gX c #401321",
"hX c #692D2E",
"jX c #682F2E",
"kX c #52232A",
"lX c #3A1224",
"zX c #421021",
"xX c #43101E",
"cX c #42111F",
/* pixels */
"                                                                ",
"                                                                ",
"                            . X o O + @                         ",
"                          # $ % & * =                           ",
"                        - ; : > , < 1 2 3 4                     ",
"                      5 6 7 8 9 0 q w e r                       ",
"                    t y u i p a s d f g h                       ",
"                    j k l z x c v b n m M N                     ",
"                      B V C Z A S D F G H J                     ",
"                        K L P I U Y T R   E                     ",
"                        E W Q ! ~ ^ / (                         ",
"                          E ) _ ` ' ] [                         ",
"                          { } |  ...X.                          ",
"                        o.O.+.@.#.$.%.&.                        ",
"                      *.=.-.;.:.>.,.<.1.2.                      ",
"                      3.4.5.6.7.8.9.0.q.w.                      ",
"                      e.r.t.y.u.i.p.a.s.d.f.                    ",
"                      g.h.j.k.l.z.x.c.v.b.2.                    ",
"                        n.m.M.N.B.V.C.Z.A.S.D.                  ",
"                        F.G.H.J.K.L.P.I.U.Y.T.                  ",
"                        R.E.W.Q.!.~.^./.(.)._.                  ",
"                      `.'.].[.{.}.|. X.XXXoX                    ",
"                    OX+X@X#X$X%X%X&X*X=X-X;X                    ",
"                    :X>X,X<X1X2X3X3X4X5X6X7X                    ",
"                      8X9X0XqXwXeXrXtXyXuX                      ",
"                        iXR.pXaXsXdXfX                          ",
"                        gXhXjXkXlX                              ",
"                          zXxXcX                                ",
"                                                                ",
"                                                                ",
"                                                                ",
"                                                                "
};
