/* XPM */
static char *xpm_[] = {
/* columns rows colors chars-per-pixel */
"32 32 256 2 ",
"   c #489848",
".  c #2E1309",
"X  c #311209",
"o  c #331108",
"O  c #311308",
"+  c #2D120B",
"@  c #2A140E",
"#  c #361305",
"$  c #552612",
"%  c #7C3C25",
"&  c #9E4E2D",
"*  c #955034",
"=  c #351105",
"-  c #391204",
";  c #793C23",
":  c #833A1D",
">  c #A44E2D",
",  c #B85E39",
"<  c #7D3B20",
"1  c #542814",
"2  c #321306",
"3  c #2A130C",
"4  c #2B1312",
"5  c #360F04",
"6  c #9A4D34",
"7  c #B5603A",
"8  c #BA5E3A",
"9  c #A44C2A",
"0  c #7F3A1F",
"q  c #5F230E",
"w  c #925139",
"e  c #30110B",
"r  c #301106",
"t  c #945234",
"y  c #7D3A1F",
"u  c #5F240F",
"i  c #85391E",
"p  c #B75F3D",
"a  c #5C230C",
"s  c #7D3D21",
"d  c #9D5032",
"f  c #7E3B1F",
"g  c #341108",
"h  c #301207",
"j  c #773D26",
"k  c #552615",
"l  c #592612",
"z  c #9F502E",
"x  c #81391E",
"c  c #9B4F33",
"v  c #833B1C",
"b  c #9C4F30",
"n  c #93513B",
"m  c #2F1207",
"M  c #301209",
"N  c #331006",
"B  c #743E26",
"V  c #5C240B",
"C  c #7E3C1F",
"Z  c #A04F2E",
"A  c #803C1E",
"S  c #773D23",
"D  c #562613",
"F  c #350E06",
"G  c #301307",
"H  c #512815",
"J  c #753C24",
"K  c #803C22",
"L  c #793C24",
"P  c #552713",
"I  c #441E12",
"U  c #2F120A",
"Y  c #29140B",
"T  c #2B120C",
"R  c #2E1307",
"E  c #522814",
"W  c #753C27",
"Q  c #552814",
"!  c #411B09",
"~  c #4C2917",
"^  c #2E1509",
"/  c #2C130A",
"(  c #3E1B0E",
")  c #51281A",
"_  c #3F1D10",
"`  c #4F281C",
"'  c #3E1D11",
"]  c #2A150C",
"[  c #2C130C",
"{  c #3F1D12",
"}  c #2E1208",
"|  c #3C1C14",
" . c #2E120B",
".. c #4C0F08",
"X. c #2E1213",
"o. c #331E20",
"O. c #2B1217",
"+. c #361D21",
"@. c #2C1317",
"#. c #2D1113",
"$. c #4A0E07",
"%. c #500B04",
"&. c #78251F",
"*. c #180A3C",
"=. c #272190",
"-. c #291E97",
";. c #291E95",
":. c #281F8A",
">. c #1D0937",
",. c #7D241A",
"<. c #520C04",
"1. c #520A04",
"2. c #772421",
"3. c #110C46",
"4. c #3751BA",
"5. c #1F20A7",
"6. c #1A22A4",
"7. c #3851B8",
"8. c #170A40",
"9. c #802017",
"0. c #842212",
"q. c #510B03",
"w. c #4F0B06",
"e. c #6B1B14",
"r. c #601E2D",
"t. c #0E0B50",
"y. c #3255B3",
"u. c #3254B8",
"i. c #2F53BA",
"p. c #3352B6",
"a. c #120A4D",
"s. c #671B23",
"d. c #872112",
"f. c #4E0C03",
"g. c #550808",
"h. c #7E2423",
"j. c #1B0641",
"k. c #21229F",
"l. c #3550BB",
"z. c #2F55B6",
"x. c #3054B9",
"c. c #384FBF",
"v. c #202199",
"b. c #1F0739",
"n. c #81231E",
"m. c #530A0A",
"M. c #6C032D",
"N. c #CB6E80",
"B. c #190947",
"V. c #231EA4",
"C. c #1C20A6",
"Z. c #3451BC",
"A. c #374FC2",
"S. c #1A22A6",
"D. c #241EA1",
"F. c #1F073B",
"G. c #D37075",
"H. c #6E0428",
"J. c #660732",
"K. c #3D1437",
"L. c #2B1E8D",
"P. c #2A1E94",
"I. c #281F90",
"U. c #281F91",
"Y. c #281F94",
"T. c #2F1E86",
"R. c #38162A",
"E. c #F8AC96",
"W. c #D66C72",
"Q. c #6F0334",
"!. c #391835",
"~. c #4B2134",
"^. c #4C2030",
"/. c #4A2131",
"(. c #482131",
"). c #351836",
"_. c #170F24",
"`. c #F4AD94",
"'. c #FEA799",
"]. c #6D0434",
"[. c #06133B",
"{. c #2E4186",
"}. c #2F3F86",
"|. c #2F4086",
" X c #2E4184",
".X c #2D4185",
"XX c #2F4184",
"oX c #110F33",
"OX c #C97770",
"+X c #FDA7A1",
"@X c #6A0434",
"#X c #06143C",
"$X c #3454A7",
"%X c #23459C",
"&X c #23429B",
"*X c #22439B",
"=X c #21449A",
"-X c #22459D",
";X c #3054B4",
":X c #3554A5",
">X c #150E3C",
",X c #580D39",
"<X c #08133D",
"1X c #3253AD",
"2X c #2F54B1",
"3X c #2F54B3",
"4X c #2E54B2",
"5X c #2E55B3",
"6X c #2E55B5",
"7X c #3753A4",
"8X c #0F113A",
"9X c #09133B",
"0X c #274392",
"qX c #3453A9",
"wX c #3453AA",
"eX c #3454AA",
"rX c #3354AA",
"tX c #3354AB",
"yX c #3255AC",
"uX c #29438A",
"iX c #0A123A",
"pX c #0C1034",
"aX c #0B1237",
"sX c #0D1137",
"dX c #0C1137",
"fX c #0D0F36",
"gX c #100F32",
"hX c #111030",
"jX c #0D1238",
"kX c #091338",
"lX c #0A1233",
"zX c #3B1325",
"xX c #3D1320",
"cX c #532328",
"vX c #40131C",
"bX c #3A1221",
"nX c #54222A",
"mX c #652D31",
"MX c #3C1322",
"NX c #3F121F",
"BX c #5A2125",
"VX c #742B22",
"CX c #A1492F",
"ZX c #9A4A35",
"AX c #41121E",
"SX c #421221",
"DX c #3E121F",
"FX c #582028",
"GX c #5E1E22",
"HX c #631F1F",
"JX c #5D1F20",
"KX c #411320",
"LX c #401123",
"PX c #401124",
"IX c #411225",
"UX c #3F1224",
/* pixels */
"                                                                ",
"                                                                ",
"                            . X o O + @                         ",
"                          # $ % & * =                           ",
"                        - ; : > , < 1 2 3 4                     ",
"                      5 6 7 8 9 0 q < w e                       ",
"                    r t y u i p a s d f g                       ",
"                    h j k l < z x c v b n m                     ",
"                      M N B V C Z A S D F 3                     ",
"                        G H J K L P I U   Y                     ",
"                        T R E W Q ! ~ ^                         ",
"                          / ( ) _ ` ' ]                         ",
"                          [ M { } |  .                          ",
"                        ..X.o.O.+.@.#.$.                        ",
"                      %.&.*.=.-.;.:.>.,.<.                      ",
"                      1.2.3.4.5.6.7.8.9.0.q.                    ",
"                    w.e.r.t.y.u.i.p.a.s.d.f.                    ",
"                    g.h.j.k.l.z.x.c.v.b.n.m.                    ",
"                    M.N.B.V.C.Z.A.S.D.F.G.H.                    ",
"                      J.K.L.P.I.U.Y.T.R.E.W.Q.                  ",
"                          !.~.^./.(.)._.`.'.].                  ",
"                        [.{.}.|. X.XXXoXOX+X@X                  ",
"                      #X$X%X&X*X=X-X;X:X>X,X                    ",
"                      <X1X2X3X4X5X5X6X3X7X8X                    ",
"                      9X0XqXwXeXrXtXyXtXuXiX                    ",
"                        pXaXsXdXfXgXhXjXkXlX                    ",
"                        zXxXcXvXbXnXmXMX                        ",
"                      NXBXVXCXZXAXSXDX                          ",
"                      NXFXGXHXJXKX                              ",
"                        LXPXIXUX                                ",
"                                                                ",
"                                                                "
};
