/* XPM */
static char *back1714476060[] = {
/* columns rows colors chars-per-pixel */
"32 32 40 1 ",
"  c #489848",
". c #479748",
"X c #479649",
"o c #FAFAF8",
"O c #459751",
"+ c #439652",
"@ c #439651",
"# c #489849",
"$ c #479849",
"% c #459449",
"& c #FAF8F8",
"* c #46974B",
"= c #47984A",
"- c #45964E",
"; c #47984C",
": c #469649",
"> c #44944B",
", c #ACF58A",
"< c #019FD3",
"1 c #4B8835",
"2 c #EBDDC8",
"3 c #1D5B07",
"4 c #0284AE",
"5 c #59BEE0",
"6 c #CAE5EF",
"7 c #3FB3D9",
"8 c #2981A2",
"9 c #51ABCC",
"0 c #20579E",
"q c #006ECD",
"w c #0064D5",
"e c #A6B7C5",
"r c #3A77C6",
"t c #97A8B4",
"y c #FDE3CB",
"u c #FDEEDE",
"i c #F3F3F3",
"p c #A19E9E",
"a c #463930",
"s c black",
/* pixels */
"                                ",
"          .XooO  +oo@#          ",
"           Xoooooooo$#          ",
"          X%ooo&&ooo*=          ",
"          %.oooooooo=#          ",
"          -*oooooooo;=          ",
"           .oooooooo            ",
"           :oooooooo>           ",
"          .,oooooooo,%          ",
"          ,,,,oooo,,,,          ",
"          ,,,,,,,,,,,,          ",
"          <1,,,11,,1,<          ",
"          211111111112          ",
"          211113311142          ",
"          251113311146          ",
"          2<<111111<76          ",
"          288<<<<<<996          ",
"          20qqqqqqqq06          ",
"          20wwwwwwww0e          ",
"          2rwrrrrrrwrt          ",
"           rwr    rwr           ",
"           rwr    rwr           ",
"           rrr    rrr           ",
"            yu    uy            ",
"            yu    uy            ",
"            yu    uy            ",
"            yu    uy            ",
"            yu    uy            ",
"            ii    ii            ",
"            pa    ap            ",
"           sss    sss           ",
"                                "
};
