/* XPM */
static char *front1714476060[] = {
/* columns rows colors chars-per-pixel */
"32 32 26 1 ",
"  c #489848",
". c #FAFAF8",
"X c #FEE2C9",
"o c #FAF8F8",
"O c black",
"+ c #ACF58A",
"@ c #019FD3",
"# c #12A2A2",
"$ c #EBDDC8",
"% c #59BEE0",
"& c #0284AE",
"* c #CAE5EF",
"= c #3FB3D9",
"- c #2981A2",
"; c #51ABCC",
": c #20579E",
"> c #006ECD",
", c #A6B7C5",
"< c #0064D5",
"1 c #97A8B4",
"2 c #3A77C6",
"3 c #FDE3CB",
"4 c #FDEEDE",
"5 c #F3F3F3",
"6 c #A19E9E",
"7 c #463930",
/* pixels */
"                                ",
"            ..    ..            ",
"            ........            ",
"            .XooooX.            ",
"            XXXXXXXX            ",
"            XXOXXOXX            ",
"            XXXXXXXX            ",
"            XXXXXXXX            ",
"           +..XXXX..+           ",
"          +++.oooo.+++          ",
"          ++++@@@@++++          ",
"          @+#@@@@@@@+@          ",
"          $+#@@@@@@@+$          ",
"          $%@@@@@@@@&$          ",
"          *%@@@@@@@@&$          ",
"          *@@@@@@@@@=$          ",
"          *--@@@@@@;;$          ",
"          *:>>>>>>>>:$          ",
"          ,:<<<<<<<<:$          ",
"          12<222222<2$          ",
"           2<2    2<2           ",
"           2<2    2<2           ",
"           222    222           ",
"            34    43            ",
"            34    43            ",
"            34    43            ",
"            34    43            ",
"            34    43            ",
"            55    55            ",
"            67    76            ",
"           OOO    OOO           ",
"                                "
};
