/* XPM */
static char *xpm_[] = {
/* columns rows colors chars-per-pixel */
"32 32 254 2 ",
"   c #489848",
".  c #2B140A",
"X  c #2C130B",
"o  c #2E130B",
"O  c #2E120B",
"+  c #2E120C",
"@  c #2D1406",
"#  c #512717",
"$  c #562614",
"%  c #783C24",
"&  c #773C24",
"*  c #512816",
"=  c #50281A",
"-  c #2A150D",
";  c #2B140B",
":  c #2D1309",
">  c #552718",
",  c #7A3D24",
"<  c #7A3C22",
"1  c #5A2510",
"2  c #7C3A20",
"3  c #7C3C1F",
"4  c #7A3B21",
"5  c #542614",
"6  c #2D1407",
"7  c #4F281A",
"8  c #301309",
"9  c #562714",
"0  c #7A3D1E",
"q  c #7D3C1E",
"w  c #9E502F",
"e  c #803B1A",
"r  c #A04E31",
"t  c #7A3A1F",
"y  c #542719",
"u  c #301208",
"i  c #572714",
"p  c #763C25",
"a  c #52281B",
"s  c #321205",
"d  c #562713",
"f  c #7C3C22",
"g  c #A04E30",
"h  c #A24D2C",
"j  c #843B1C",
"k  c #9B4E33",
"l  c #301307",
"z  c #331008",
"x  c #B25F40",
"c  c #9F4F30",
"v  c #7A3C24",
"b  c #370F06",
"n  c #904C46",
"m  c #341107",
"M  c #2F1306",
"N  c #3A1003",
"B  c #B95E3E",
"V  c #A74C2D",
"C  c #A0522F",
"Z  c #562517",
"A  c #2D130D",
"S  c #341108",
"D  c #964A45",
"F  c #D76F6A",
"G  c #DB6D64",
"H  c #D67068",
"J  c #954B49",
"K  c #3C0F06",
"L  c #BA5C3B",
"P  c #C15B34",
"I  c #B65F3C",
"U  c #532614",
"Y  c #2C130D",
"T  c #281311",
"R  c #140907",
"E  c #160805",
"W  c #1D0601",
"Q  c #F7AD91",
"!  c #F3B193",
"~  c #1A0804",
"^  c #150904",
"/  c #311106",
"(  c #753D29",
")  c #331207",
"_  c #2C150C",
"`  c #5E0934",
"'  c #1B0707",
"]  c #BEA7A3",
"[  c #662D14",
"{  c #F8AE8E",
"}  c #F9AE8B",
"|  c #642E14",
" . c #C2A99E",
".. c #532718",
"X. c #320F0B",
"o. c #6B0431",
"O. c #CD7073",
"+. c #FFF7F0",
"@. c #672C11",
"#. c #F8AE8D",
"$. c #F9AD8B",
"%. c #662D12",
"&. c #FFF6EB",
"*. c #D26E78",
"=. c #690632",
"-. c #67072E",
";. c #F9A998",
":. c #F9AD8E",
">. c #FBAC8C",
",. c #FCAC8C",
"<. c #FBAC8F",
"1. c #F9AA9D",
"2. c #6A0632",
"3. c #670635",
"4. c #6E062A",
"5. c #DA6D6B",
"6. c #D96D6E",
"7. c #6A062E",
"8. c #670437",
"9. c #460E08",
"0. c #440E14",
"q. c #210635",
"w. c #572430",
"e. c #FAAD90",
"r. c #F8AC93",
"t. c #532439",
"y. c #1F0935",
"u. c #450E0E",
"i. c #4B0D07",
"p. c #4B0B06",
"a. c #6D1911",
"s. c #7E241E",
"d. c #210731",
"f. c #802217",
"g. c #8A1F0E",
"h. c #8C1E0C",
"j. c #7C241F",
"k. c #230931",
"l. c #832119",
"z. c #882010",
"x. c #4B0C04",
"c. c #4E0B04",
"v. c #711714",
"b. c #7B2325",
"n. c #3A1D77",
"m. c #6B1727",
"M. c #891F13",
"N. c #862116",
"B. c #651927",
"V. c #3B1B74",
"C. c #83201C",
"Z. c #872215",
"A. c #520A03",
"S. c #500B02",
"D. c #7F2218",
"F. c #4D0D02",
"G. c #A8756F",
"H. c #180A40",
"J. c #150A44",
"K. c #150B41",
"L. c #1A0B37",
"P. c #B1706D",
"I. c #6B042F",
"U. c #6D062A",
"Y. c #861E1B",
"T. c #4C0D07",
"R. c #480D08",
"E. c #430D1A",
"W. c #2E1C8D",
"Q. c #1F20A3",
"!. c #3254B9",
"~. c #3653B8",
"^. c #2A1E8E",
"/. c #640739",
"(. c #FDA997",
"). c #FDA89B",
"_. c #670727",
"`. c #500A0B",
"'. c #430F13",
"]. c #0C0B51",
"[. c #3654B5",
"{. c #2E57BB",
"}. c #3156B9",
"|. c #464FA8",
" X c #CE7079",
".X c #FAAB8D",
"XX c #FEAA8F",
"oX c #D76C71",
"OX c #680631",
"+X c #450E11",
"@X c #170943",
"#X c #252396",
"$X c #3654AD",
"%X c #3A52B0",
"&X c #2F1C8B",
"*X c #670537",
"=X c #DC6B6E",
"-X c #FEA998",
";X c #650730",
":X c #3F151F",
">X c #53211B",
",X c #6C312A",
"<X c #AA755F",
"1X c #AA7761",
"2X c #6D322A",
"3X c #591C22",
"4X c #640836",
"5X c #650736",
"6X c #091338",
"7X c #2A4389",
"8X c #29428E",
"9X c #294390",
"0X c #3554A3",
"qX c #274394",
"wX c #2B4188",
"eX c #0E1138",
"rX c #06133E",
"tX c #3552A8",
"yX c #24439E",
"uX c #3252AF",
"iX c #3054B2",
"pX c #3253AF",
"aX c #27438E",
"sX c #08133A",
"dX c #0D1232",
"fX c #091337",
"gX c #29428F",
"hX c #3752A3",
"jX c #08123C",
"kX c #0B1135",
"lX c #091136",
"zX c #0A1233",
"xX c #3B1420",
"cX c #5A2026",
"vX c #732A20",
"bX c #9E4C31",
"nX c #6E2B25",
"mX c #3F1122",
"MX c #3A1324",
"NX c #3F121F",
"BX c #5B2024",
"VX c #752A21",
"CX c #7C2917",
"ZX c #A74A21",
"AX c #A14A2E",
"SX c #42121C",
"DX c #592128",
"FX c #5D2022",
"GX c #5F1F1D",
"HX c #712B22",
"JX c #40121F",
"KX c #3C1420",
"LX c #3E1320",
"PX c #3E121F",
/* pixels */
"                                                                ",
"                                                                ",
"                        . X o O o +                             ",
"                          @ # $ % & * =                         ",
"                    - ; : > , < 1 2 3 4 5                       ",
"                      6 7 8 9 0 q w e r t y                     ",
"                    u i p a s d f g h j k l                     ",
"                  z x c v b n m M N B V C Z                     ",
"                  A o O S D F G H J K L P I U                   ",
"                  Y   T R E W Q ! ~ ^ / ( ) _                   ",
"                      ` ' ] [ { } |  ...X.                      ",
"                      o.O.+.@.#.$.%.&.*.=.                      ",
"                        -.;.:.>.,.<.1.2.                        ",
"                          3.4.5.6.7.8.                          ",
"                      9.0.q.w.e.r.t.y.u.i.                      ",
"                    p.a.s.d.f.g.h.j.k.l.z.x.                    ",
"                    c.v.b.n.m.M.N.B.V.C.Z.A.                    ",
"                    S.D.F.G.H.J.K.L.P.I.U.Y.T.                  ",
"                      R.E.W.Q.!.~.^./.(.)._.`.                  ",
"                        '.].[.{.}.|. X.XXXoXOX                  ",
"                        +X@X#X$X%X&X*X=X-X;X                    ",
"                        :X>X,X<X1X2X3X4X5X                      ",
"                        6X7X8X9X0XqXwXeX                        ",
"                        rXtXyXuXiXpXaXsX                        ",
"                        dXfXgXhXjXkXlXzX                        ",
"                      xXcXvXbXnXmXMX                            ",
"                      NXBXVXCXZXAXSX                            ",
"                      NXDXFXFXGXHXJX                            ",
"                        KXKXKXLXPX                              ",
"                                                                ",
"                                                                ",
"                                                                "
};
