/* XPM */
static char *xpm_[] = {
/* columns rows colors chars-per-pixel */
"32 32 124 2 ",
"   c #0F0B06",
".  c #1A0704",
"X  c #150905",
"o  c #120908",
"O  c #360F06",
"+  c #2E1307",
"@  c #2C130B",
"#  c #321107",
"$  c #32120A",
"%  c #281410",
"&  c #3D131E",
"*  c #170A3E",
"=  c #180A3D",
"-  c #061534",
";  c #0D1134",
":  c #07133C",
">  c #101231",
",  c #371427",
"<  c #3C1322",
"1  c #460F05",
"2  c #4C0C06",
"3  c #460E0D",
"4  c #4B0C0A",
"5  c #4B0A10",
"6  c #6E1A14",
"7  c #711916",
"8  c #4F2918",
"9  c #552715",
"0  c #5B2412",
"q  c #522817",
"w  c #53251A",
"e  c #5B211E",
"r  c #502819",
"t  c #672C14",
"y  c #692B12",
"u  c #7C2719",
"i  c #762A1D",
"p  c #792918",
"a  c #7C3C1F",
"s  c #5F0B2E",
"d  c #5F0933",
"f  c #66072D",
"g  c #63092E",
"h  c #671B22",
"j  c #6A1920",
"k  c #630735",
"l  c #680633",
"z  c #610835",
"x  c #61073A",
"c  c #5C2022",
"v  c #542533",
"b  c #582531",
"n  c #722A24",
"m  c #6D3227",
"M  c #773F22",
"N  c #7C3C22",
"B  c #0D0C4E",
"V  c #150A44",
"C  c #1A0A40",
"Z  c #100B4A",
"A  c #5B0941",
"S  c #8D1F0A",
"D  c #841F17",
"F  c #8C200C",
"G  c #852116",
"H  c #8A2112",
"J  c #842218",
"K  c #83391E",
"L  c #9E4E2E",
"P  c #A44925",
"I  c #A84826",
"U  c #A34E2C",
"Y  c #A1502D",
"T  c #A05030",
"R  c #BE5C36",
"E  c #B55F3D",
"W  c #B95D39",
"Q  c #974A46",
"!  c #9D4947",
"~  c #AC755D",
"^  c #AF7266",
"/  c #AC7269",
"(  c #DC6D66",
")  c #D76E6B",
"_  c #D86F6A",
"`  c #489848",
"'  c #321C89",
"]  c #261F97",
"[  c #2A1D95",
"{  c #281E99",
"}  c #24219B",
"|  c #201FA5",
" . c #2220A5",
".. c #1F459A",
"X. c #2D418E",
"o. c #274392",
"O. c #2A4291",
"+. c #244399",
"@. c #3653AE",
"#. c #3B50AC",
"$. c #2E54B5",
"%. c #2F55B9",
"&. c #3154B3",
"*. c #3254B9",
"=. c #BEA9A6",
"-. c #BCA9A8",
";. c #F7AE8C",
":. c #FCAE8D",
">. c #FCAC8C",
",. c #FAAD8B",
"<. c #F6AD95",
"1. c #F7AC97",
"2. c #FBAB90",
"3. c #FBAB93",
"4. c #FDAA92",
"5. c #FCAB92",
"6. c #F9AC91",
"7. c #FAAC90",
"8. c #FBAC91",
"9. c #F9AC92",
"0. c #FAAC92",
"q. c #FBAB94",
"w. c #FFF8F1",
"e. c #FFF9F2",
/* pixels */
"` ` ` ` ` ` ` ` ` ` ` ` ` ` ` ` ` ` ` ` ` ` ` ` ` ` ` ` ` ` ` ` ",
"` ` ` ` ` ` ` ` ` ` ` ` ` ` ` ` ` ` ` ` ` ` ` ` ` ` ` ` ` ` ` ` ",
"` ` ` ` ` ` ` ` ` ` ` ` @ @ @ @ # @ ` ` ` ` ` ` ` ` ` ` ` ` ` ` ",
"` ` ` ` ` ` ` ` ` ` ` ` ` @ r 9 M N 9 q ` ` ` ` ` ` ` ` ` ` ` ` ",
"` ` ` ` ` ` ` ` ` ` % @ @ q N N 0 a N N 9 ` ` ` ` ` ` ` ` ` ` ` ",
"` ` ` ` ` ` ` ` ` ` ` @ q @ q N N Y K U a q ` ` ` ` ` ` ` ` ` ` ",
"` ` ` ` ` ` ` ` ` ` @ 9 N q O 9 N U U K L $ ` ` ` ` ` ` ` ` ` ` ",
"` ` ` ` ` ` ` ` ` $ E T N O ! # # O W U U 9 ` ` ` ` ` ` ` ` ` ` ",
"` ` ` ` ` ` ` ` ` @ @ @ @ Q _ ( ( Q # W R W 8 ` ` ` ` ` ` ` ` ` ",
"` ` ` ` ` ` ` ` ` @ ` % o o . ,.,.X   $ M + % ` ` ` ` ` ` ` ` ` ",
"` ` ` ` ` ` ` ` ` ` ` x X -.y ;.,.t =.q @ ` ` ` ` ` ` ` ` ` ` ` ",
"` ` ` ` ` ` ` ` ` ` ` k ) e.y ;.,.y e.) k ` ` ` ` ` ` ` ` ` ` ` ",
"` ` ` ` ` ` ` ` ` ` ` ` g <.6.>.,.>.<.s ` ` ` ` ` ` ` ` ` ` ` ` ",
"` ` ` ` ` ` ` ` ` ` ` ` ` z l ( ( l x ` ` ` ` ` ` ` ` ` ` ` ` ` ",
"` ` ` ` ` ` ` ` ` ` ` ` 3 C b 6.6.b * 3 ` ` ` ` ` ` ` ` ` ` ` ` ",
"` ` ` ` ` ` ` ` ` ` ` 2 J * G F S J C G 4 ` ` ` ` ` ` ` ` ` ` ` ",
"` ` ` ` ` ` ` ` ` ` ` 2 J ' j G G h ' D 2 ` ` ` ` ` ` ` ` ` ` ` ",
"` ` ` ` ` ` ` ` ` ` 2 7 6 / V Z V V ^ 7 6 1 ` ` ` ` ` ` ` ` ` ` ",
"` ` ` ` ` ` ` ` ` ` 2 H 5 { | &.*.| [ 4 H 4 ` ` ` ` ` ` ` ` ` ` ",
"` ` ` ` ` ` ` ` ` ` 4 _ 4 B *.*.*.*.Z 4 ) 4 ` ` ` ` ` ` ` ` ` ` ",
"` ` ` ` ` ` ` ` ` ` f 6.4 V } @.#.} * 2 6.f ` ` ` ` ` ` ` ` ` ` ",
"` ` ` ` ` ` ` ` ` l 6.>.) c m ~ ~ m e ) >.4.z ` ` ` ` ` ` ` ` ` ",
"` ` ` ` ` ` ` ` ` l 6.q.d O.o.o.o.o.X.x 4.q.d ` ` ` ` ` ` ` ` ` ",
"` ` ` ` ` ` ` ` ` ` x A @.+.+.+.+.$.%.#.A z ` ` ` ` ` ` ` ` ` ` ",
"` ` ` ` ` ` ` ` ` ` ; X.&.&.$.&.$.$.$.&.X.; ` ` ` ` ` ` ` ` ` ` ",
"` ` ` ` ` ` ` ` ` ` ` - : @.$.&.&.$.@.o.- ` ` ` ` ` ` ` ` ` ` ` ",
"` ` ` ` ` ` ` ` ` ` ` ` , > > ; - ; ; ; ` ` ` ` ` ` ` ` ` ` ` ` ",
"` ` ` ` ` ` ` ` ` ` ` ` & m c < < e n & ` ` ` ` ` ` ` ` ` ` ` ` ",
"` ` ` ` ` ` ` ` ` ` ` < i p n < 5 n u i < ` ` ` ` ` ` ` ` ` ` ` ",
"` ` ` ` ` ` ` ` ` ` ` & I P c < , c P P < ` ` ` ` ` ` ` ` ` ` ` ",
"` ` ` ` ` ` ` ` ` ` ` ` & & & ` ` < & & ` ` ` ` ` ` ` ` ` ` ` ` ",
"` ` ` ` ` ` ` ` ` ` ` ` ` ` ` ` ` ` ` ` ` ` ` ` ` ` ` ` ` ` ` ` "
};
