/* XPM */
static char *xpm_[] = {
/* columns rows colors chars-per-pixel */
"32 32 124 2 ",
"   c #190703",
".  c #140A04",
"X  c #190708",
"o  c #130909",
"O  c #2F1107",
"+  c #26160E",
"@  c #2C140B",
"#  c #321106",
"$  c #32120A",
"%  c #291510",
"&  c #3C141E",
"*  c #10112E",
"=  c #150C3E",
"-  c #19093E",
";  c #0B1234",
":  c #101035",
">  c #371623",
",  c #3B1422",
"<  c #470F05",
"1  c #4B0C06",
"2  c #470E0A",
"3  c #4A0D0A",
"4  c #4B0C10",
"5  c #711816",
"6  c #542714",
"7  c #592615",
"8  c #512914",
"9  c #542619",
"0  c #512819",
"q  c #652C14",
"w  c #692B11",
"e  c #7B2917",
"r  c #752B1B",
"t  c #7D3C1E",
"y  c #5F0A34",
"u  c #5F073D",
"i  c #590A3D",
"p  c #620A2F",
"a  c #651C26",
"s  c #681A27",
"d  c #630733",
"f  c #680432",
"g  c #610936",
"h  c #630738",
"j  c #532020",
"k  c #5C2124",
"l  c #56222A",
"z  c #582229",
"x  c #562532",
"c  c #752A21",
"v  c #6C312A",
"b  c #763C24",
"n  c #7A3C23",
"m  c #0B0D4B",
"M  c #150B44",
"N  c #130A49",
"B  c #8C1F0D",
"V  c #861F17",
"C  c #8C210E",
"Z  c #852215",
"A  c #8A2014",
"S  c #832319",
"D  c #82391D",
"F  c #A44824",
"G  c #A94827",
"H  c #A34D2D",
"J  c #A84828",
"K  c #A14E31",
"L  c #BE5C37",
"P  c #B45E3D",
"I  c #BA5D3A",
"U  c #994844",
"Y  c #AD765F",
"T  c #AB7469",
"R  c #D96D5F",
"E  c #D76D67",
"W  c #DB6D65",
"Q  c #DB6D68",
"!  c #D56E73",
"~  c #CF7073",
"^  c #489848",
"/  c #2F1C89",
"(  c #301C88",
")  c #271D93",
"_  c #291D99",
"`  c #333F8E",
"'  c #252199",
"]  c #211FA4",
"[  c #1F21A4",
"{  c #2B418E",
"}  c #30428C",
"|  c #264392",
" . c #2B4391",
".. c #3154AE",
"X. c #3A52AA",
"o. c #2E55B5",
"O. c #2E56B9",
"+. c #3254B2",
"@. c #3952B0",
"#. c #3353BA",
"$. c #BFA9A5",
"%. c #F8AD8B",
"&. c #F8AE8A",
"*. c #FBAA8C",
"=. c #FCAB8C",
"-. c #FCA98E",
";. c #FCA98F",
":. c #FBAD8C",
">. c #FBAC8D",
",. c #F8AE8D",
"<. c #F9AE8D",
"1. c #FAAE8D",
"2. c #F8AC8E",
"3. c #FCAC8C",
"4. c #FBAB8B",
"5. c #F8AC90",
"6. c #F9AC91",
"7. c #FBAD91",
"8. c #FCAA94",
"9. c #F9AC95",
"0. c #F8AC96",
"q. c #F9AC96",
"w. c #FFFAF3",
"e. c #FFF9F4",
/* pixels */
"^ ^ ^ ^ ^ ^ ^ ^ ^ ^ ^ ^ ^ ^ ^ ^ ^ ^ ^ ^ ^ ^ ^ ^ ^ ^ ^ ^ ^ ^ ^ ^ ",
"^ ^ ^ ^ ^ ^ ^ ^ ^ ^ ^ ^ ^ ^ ^ ^ ^ ^ ^ ^ ^ ^ ^ ^ ^ ^ ^ ^ ^ ^ ^ ^ ",
"^ ^ ^ ^ ^ ^ ^ ^ ^ ^ ^ ^ + @ @ @ $ @ ^ ^ ^ ^ ^ ^ ^ ^ ^ ^ ^ ^ ^ ^ ",
"^ ^ ^ ^ ^ ^ ^ ^ ^ ^ ^ ^ ^ @ 9 6 n n 8 0 ^ ^ ^ ^ ^ ^ ^ ^ ^ ^ ^ ^ ",
"^ ^ ^ ^ ^ ^ ^ ^ ^ ^ % @ @ 8 n n 7 t n n 9 ^ ^ ^ ^ ^ ^ ^ ^ ^ ^ ^ ",
"^ ^ ^ ^ ^ ^ ^ ^ ^ ^ ^ @ 0 # 9 t t H D H D 0 ^ ^ ^ ^ ^ ^ ^ ^ ^ ^ ",
"^ ^ ^ ^ ^ ^ ^ ^ ^ ^ $ 7 n 8 $ 8 n K H D H # ^ ^ ^ ^ ^ ^ ^ ^ ^ ^ ",
"^ ^ ^ ^ ^ ^ ^ ^ ^ @ P K b $ U $ # # I H H 6 ^ ^ ^ ^ ^ ^ ^ ^ ^ ^ ",
"^ ^ ^ ^ ^ ^ ^ ^ ^ @ @ # $ U Q W W U # I L I 8 ^ ^ ^ ^ ^ ^ ^ ^ ^ ",
"^ ^ ^ ^ ^ ^ ^ ^ ^ + ^ @ o o   &.,.  . # b # + ^ ^ ^ ^ ^ ^ ^ ^ ^ ",
"^ ^ ^ ^ ^ ^ ^ ^ ^ ^ ^ y X $.q %.1.q $.9 $ ^ ^ ^ ^ ^ ^ ^ ^ ^ ^ ^ ",
"^ ^ ^ ^ ^ ^ ^ ^ ^ ^ ^ g ! w.w <.<.w w.! d ^ ^ ^ ^ ^ ^ ^ ^ ^ ^ ^ ",
"^ ^ ^ ^ ^ ^ ^ ^ ^ ^ ^ ^ d 0.7.;.%.7.q.h ^ ^ ^ ^ ^ ^ ^ ^ ^ ^ ^ ^ ",
"^ ^ ^ ^ ^ ^ ^ ^ ^ ^ ^ ^ ^ g f Q Q f d ^ ^ ^ ^ ^ ^ ^ ^ ^ ^ ^ ^ ^ ",
"^ ^ ^ ^ ^ ^ ^ ^ ^ ^ ^ ^ 2 = l ;.<.x - 2 ^ ^ ^ ^ ^ ^ ^ ^ ^ ^ ^ ^ ",
"^ ^ ^ ^ ^ ^ ^ ^ ^ ^ ^ 2 Z M S B B S - Z 3 ^ ^ ^ ^ ^ ^ ^ ^ ^ ^ ^ ",
"^ ^ ^ ^ ^ ^ ^ ^ ^ ^ ^ 1 S / s Z A a ( Z 5 3 ^ ^ ^ ^ ^ ^ ^ ^ ^ ^ ",
"^ ^ ^ ^ ^ ^ ^ ^ ^ ^ < 5 5 T M M N M T 5 B 1 ^ ^ ^ ^ ^ ^ ^ ^ ^ ^ ",
"^ ^ ^ ^ ^ ^ ^ ^ ^ ^ 3 V 3 _ ] #.#.] ) 3 B B < ^ ^ ^ ^ ^ ^ ^ ^ ^ ",
"^ ^ ^ ^ ^ ^ ^ ^ ^ ^ d E 3 m +.#.#.#.N 3 Q B 3 ^ ^ ^ ^ ^ ^ ^ ^ ^ ",
"^ ^ ^ ^ ^ ^ ^ ^ ^ ^ f 6.3 M _ X.X.' = < ;.R d ^ ^ ^ ^ ^ ^ ^ ^ ^ ",
"^ ^ ^ ^ ^ ^ ^ ^ ^ ^ d 9., 9 v T Y v 9 2.4.-.d ^ ^ ^ ^ ^ ^ ^ ^ ^ ",
"^ ^ ^ ^ ^ ^ ^ ^ ^ ^ ^ i ....| | | | } ~ *.8.g ^ ^ ^ ^ ^ ^ ^ ^ ^ ",
"^ ^ ^ ^ ^ ^ ^ ^ ^ ^ ;  .o.o.o.o.o.o.+.` u g ^ ^ ^ ^ ^ ^ ^ ^ ^ ^ ",
"^ ^ ^ ^ ^ ^ ^ ^ ^ ^ ^ ; | ....+.+.+...+.} : ^ ^ ^ ^ ^ ^ ^ ^ ^ ^ ",
"^ ^ ^ ^ ^ ^ ^ ^ ^ ^ ^ ^ * * ; ; ; ; ; ; ; ^ ^ ^ ^ ^ ^ ^ ^ ^ ^ ^ ",
"^ ^ ^ ^ ^ ^ ^ ^ ^ ^ ^ , H F r , , l l > ^ ^ ^ ^ ^ ^ ^ ^ ^ ^ ^ ^ ",
"^ ^ ^ ^ ^ ^ ^ ^ ^ ^ ^ & e e G & ^ , , ^ ^ ^ ^ ^ ^ ^ ^ ^ ^ ^ ^ ^ ",
"^ ^ ^ ^ ^ ^ ^ ^ ^ ^ ^ , k r c , ^ ^ ^ ^ ^ ^ ^ ^ ^ ^ ^ ^ ^ ^ ^ ^ ",
"^ ^ ^ ^ ^ ^ ^ ^ ^ ^ ^ ^ > , , ^ ^ ^ ^ ^ ^ ^ ^ ^ ^ ^ ^ ^ ^ ^ ^ ^ ",
"^ ^ ^ ^ ^ ^ ^ ^ ^ ^ ^ ^ ^ ^ ^ ^ ^ ^ ^ ^ ^ ^ ^ ^ ^ ^ ^ ^ ^ ^ ^ ^ ",
"^ ^ ^ ^ ^ ^ ^ ^ ^ ^ ^ ^ ^ ^ ^ ^ ^ ^ ^ ^ ^ ^ ^ ^ ^ ^ ^ ^ ^ ^ ^ ^ "
};
