/* XPM */
static char *xpm_[] = {
/* columns rows colors chars-per-pixel */
"32 32 119 2 ",
"   c #160808",
".  c #220602",
"X  c #350E0E",
"o  c #380E09",
"O  c #2E1306",
"+  c #2C130B",
"@  c #331205",
"#  c #33120A",
"$  c #331012",
"%  c #3E131E",
"&  c #12102C",
"*  c #1F0637",
"=  c #1B0B37",
"-  c #140B3E",
";  c #190A3B",
":  c #0B1333",
">  c #07123A",
",  c #0B123A",
"<  c #361527",
"1  c #3D1322",
"2  c #39172A",
"3  c #37182E",
"4  c #230734",
"5  c #210738",
"6  c #391531",
"7  c #4C0D07",
"8  c #450D0E",
"9  c #4C0D0A",
"0  c #540807",
"q  c #430E13",
"w  c #4A0A13",
"e  c #42101B",
"r  c #6F171C",
"t  c #6A1A19",
"y  c #711616",
"u  c #5B240C",
"i  c #552614",
"p  c #5A2612",
"a  c #532815",
"s  c #522718",
"d  c #5E211E",
"f  c #522919",
"g  c #682B10",
"h  c #632D18",
"j  c #7D241D",
"k  c #762A1B",
"l  c #520820",
"z  c #5F1F22",
"x  c #5D0B34",
"c  c #5D073C",
"v  c #680727",
"b  c #63062F",
"n  c #6D052C",
"m  c #65092C",
"M  c #6C1722",
"N  c #621D23",
"B  c #681A25",
"V  c #651B28",
"C  c #650635",
"Z  c #690535",
"A  c #610935",
"S  c #4A2429",
"D  c #592127",
"F  c #52242E",
"G  c #702C25",
"H  c #763D26",
"J  c #7B3C24",
"K  c #753E2B",
"L  c #0D0E42",
"P  c #130B43",
"I  c #180A41",
"U  c #861F14",
"Y  c #89210E",
"T  c #852213",
"R  c #84221C",
"E  c #9D4F2F",
"W  c #9C4C32",
"Q  c #9A5035",
"!  c #975138",
"~  c #B65E39",
"^  c #8F4F47",
"/  c #974A46",
"(  c #AD735C",
")  c #9E7873",
"_  c #AD7368",
"`  c #A27872",
"'  c #D56D65",
"]  c #D86F65",
"[  c #CE726D",
"{  c #D4716B",
"}  c #D46C72",
"|  c #DA6A77",
" . c #489848",
".. c #2B1D85",
"X. c #281F8F",
"o. c #333E8E",
"O. c #22219A",
"+. c #2A4386",
"@. c #2E418C",
"#. c #264395",
"$. c #294093",
"%. c #25429C",
"&. c #3355AC",
"*. c #3C52A8",
"=. c #2E55B4",
"-. c #3154B2",
";. c #F7AE8D",
":. c #FBAC8D",
">. c #FBAA95",
",. c #FAAA97",
"<. c #FCAA95",
"1. c #FCAB91",
"2. c #FAA89E",
"3. c #FCA99C",
"4. c #F1B090",
"5. c #F2B092",
"6. c #C2A7A4",
"7. c #FEA5A3",
"8. c #FFF7F3",
/* pixels */
" . . . . . . . . . . . . . . . . . . . . . . . . . . . . . . . .",
" . . . . . . . . . . . . . . . . . . . . . . . . . . . . . . . .",
" . . . . . . . . . . . . . . .+ + + +  . . . . . . . . . . . . .",
" . . . . . . . . . . . . .+ O s H K f +  . . . . . . . . . . . .",
" . . . . . . . . . . . .a J Q J s @ O s @ +  . . . . . . . . . .",
" . . . . . . . . . . .f Q ~ J a O O i J Q s +  . . . . . . . . .",
" . . . . . . . . . . .a ~ R @ @ s H E u Q @  . . . . . . . . . .",
" . . . . . . . . . .O Q E # / ^ s i W o J Q +  . . . . . . . . .",
" . . . . . . . . . .+ J @ l { .   . J a @ H +  . . . . . . . . .",
" . . . . . . . . . . .O $ m 1.h 6.[ u ( f O +  . . . . . . . . .",
" . . . . . . . . . . . .A 7.:.g 8.1.;.4.O +  . . . . . . . . . .",
" . . . . . . . . . . . . .m ,.;.5.;.;.a O  . . . . . . . . . . .",
" . . . . . . . . . . . . . .m <.1.;.{ X  . . . . . . . . . . . .",
" . . . . . . . . . . . . . . .A n ] n x  . . . . . . . . . . . .",
" . . . . . . . . . . . . . . .5 M :.r 5 9  . . . . . . . . . . .",
" . . . . . . . . . . . . . .P V y Y j * t 7  . . . . . . . . . .",
" . . . . . . . . . . . . .q = B R T 4 N U 7  . . . . . . . . . .",
" . . . . . . . . . . . .A * ` I ; _ I 9 T y 7  . . . . . . . . .",
" . . . . . . . . . . .C 7.- - O.-.X.P w 0 ' 7  . . . . . . . . .",
" . . . . . . . . . . .C } P L *.*.O.P w v <.v  . . . . . . . . .",
" . . . . . . . . . . . .C P S ) S 6 - b | ;.3.C  . . . . . . . .",
" . . . . . . . . . . . . .P P ..P 3 3 c C <.<.b  . . . . . . . .",
" . . . . . . . . . . . . .> $.%.#.@.@.o.= C Z  . . . . . . . . .",
" . . . . . . . . . . . .: @.%.=.-.=.-.&.,  . . . . . . . . . . .",
" . . . . . . . . . . . .: #.=.=.=.=.=.-.>  . . . . . . . . . . .",
" . . . . . . . . . . .e & &.&.-.-.-.&.#.+.:  . . . . . . . . . .",
" . . . . . . . . . .% W W & : , > , , , >  . . . . . . . . . . .",
" . . . . . . . . . .% d k W G F 2 F F <  . . . . . . . . . . . .",
" . . . . . . . . . . .% e N D D e e 1  . . . . . . . . . . . . .",
" . . . . . . . . . . . .1 % 1 e 2  . . . . . . . . . . . . . . .",
" . . . . . . . . . . . . . . . . . . . . . . . . . . . . . . . .",
" . . . . . . . . . . . . . . . . . . . . . . . . . . . . . . . ."
};
