/* XPM */
static char *xpm_[] = {
/* columns rows colors chars-per-pixel */
"32 32 240 2 ",
"   c #489848",
".  c #2E140C",
"X  c #2D1309",
"o  c #2E110A",
"O  c #2D140C",
"+  c #31120C",
"@  c #321109",
"#  c #532617",
"$  c #753B26",
"%  c #743E28",
"&  c #51281B",
"*  c #542814",
"=  c #7B3B21",
"-  c #9A5032",
";  c #7A3C26",
":  c #532814",
">  c #321205",
",  c #321206",
"<  c #512818",
"1  c #311206",
"2  c #2E130D",
"3  c #522718",
"4  c #9D5133",
"5  c #B95F3A",
"6  c #7D3B1F",
"7  c #552613",
"8  c #301205",
"9  c #2F1204",
"0  c #522714",
"q  c #783C26",
"w  c #9A5035",
"e  c #502717",
"r  c #2A1612",
"t  c #562712",
"y  c #B95F38",
"u  c #7E3B1E",
"i  c #381006",
"p  c #321207",
"a  c #51271A",
"s  c #733F26",
"d  c #9A5034",
"f  c #572614",
"g  c #9B4F2E",
"h  c #371006",
"j  c #2B140B",
"k  c #995134",
"l  c #7C3C22",
"z  c #954C43",
"x  c #904D47",
"c  c #50261A",
"v  c #542615",
"b  c #9F4E2E",
"n  c #351205",
"m  c #7A3C22",
"M  c #994F32",
"N  c #31120B",
"B  c #29150B",
"V  c #793D25",
"C  c #361107",
"Z  c #53081F",
"A  c #D3716C",
"S  c #200401",
"D  c #160702",
"F  c #270501",
"G  c #7E3B21",
"H  c #351103",
"J  c #7A3D24",
"K  c #2E1109",
"L  c #2F1209",
"P  c #330E0D",
"I  c #67052D",
"U  c #FBAC93",
"Y  c #754739",
"T  c #C1A6A5",
"R  c #D1736A",
"E  c #5B250F",
"W  c #AD7358",
"Q  c #512719",
"!  c #301408",
"~  c #29140A",
"^  c #600A2E",
"/  c #FEA7A3",
"(  c #FBAD92",
")  c #7A4533",
"_  c #FFF6EE",
"`  c #F9AC8D",
"'  c #F4AE8D",
"]  c #F3B091",
"[  c #331408",
"{  c #2B150C",
"}  c #65092E",
"|  c #FDA995",
" . c #F8AE8F",
".. c #F3B291",
"X. c #F7AF8C",
"o. c #F9AD8E",
"O. c #2C120F",
"+. c #67082D",
"@. c #FEA998",
"#. c #FCAB8F",
"$. c #D86D67",
"%. c #350F0C",
"&. c #5F0934",
"*. c #6A062A",
"=. c #DB6E68",
"-. c #70062D",
";. c #590B37",
":. c #22083C",
">. c #6C161F",
",. c #FFA890",
"<. c #711720",
"1. c #1D083A",
"2. c #490D0C",
"3. c #140C40",
"4. c #641B29",
"5. c #741917",
"6. c #8C200B",
"7. c #7F241E",
"8. c #1F0939",
"9. c #6C1719",
"0. c #4A0D06",
"q. c #180B3A",
"w. c #6E1920",
"e. c #881D14",
"r. c #892015",
"t. c #2A062A",
"y. c #651A21",
"u. c #86211A",
"i. c #4B0E07",
"p. c #421010",
"a. c #AF7167",
"s. c #68062C",
"d. c #6E052A",
"f. c #6D042A",
"g. c #681A21",
"h. c #872215",
"j. c #721616",
"k. c #4C0B08",
"l. c #1B0A33",
"z. c #62082D",
"x. c #FBAA98",
"c. c #FCAB99",
"v. c #FEA69E",
"b. c #D96E66",
"n. c #872011",
"m. c #520C05",
"M. c #120C41",
"N. c #650634",
"B. c #FCA996",
"V. c #66082D",
"C. c #4E0B0A",
"Z. c #4E0A05",
"A. c #120B40",
"S. c #551E28",
"D. c #630737",
"F. c #620834",
"G. c #470F23",
"H. c #1F0A30",
"J. c #3E0F11",
"K. c #3F121C",
"L. c #41121D",
"P. c #0F0D43",
"I. c #120C42",
"U. c #2D1E92",
"Y. c #170948",
"T. c #361728",
"R. c #33172F",
"E. c #160C37",
"W. c #3D151E",
"Q. c #A1492C",
"!. c #A34A2B",
"~. c #0F1035",
"^. c #162662",
"/. c #2A4093",
"(. c #3351B4",
"). c #294295",
"_. c #2E4188",
"`. c #2C428B",
"'. c #162863",
"]. c #0A133A",
"[. c #0B1437",
"{. c #3C1225",
"}. c #3A131F",
"|. c #772919",
" X c #A64927",
".X c #3D529A",
"XX c #3256AF",
"oX c #2D57B1",
"OX c #23459D",
"+X c #244399",
"@X c #244498",
"#X c #24449A",
"$X c #254393",
"%X c #152862",
"&X c #1A285B",
"*X c #57222B",
"=X c #3D1121",
"-X c #3A1421",
";X c #5D2121",
":X c #A5492A",
">X c #202755",
",X c #3454AA",
"<X c #2F55AE",
"1X c #2E54B1",
"2X c #2F56B2",
"3X c #2F56B3",
"4X c #3055B3",
"5X c #274497",
"6X c #3752A1",
"7X c #1D2855",
"8X c #6B2D26",
"9X c #3E1120",
"0X c #3E141D",
"qX c #772A1E",
"wX c #672E2D",
"eX c #0D1135",
"rX c #061142",
"tX c #234396",
"yX c #244598",
"uX c #24459A",
"iX c #254595",
"pX c #06133F",
"aX c #0E1036",
"sX c #652C2D",
"dX c #712C1F",
"fX c #3F121E",
"gX c #3B1420",
"hX c #5C2025",
"jX c #5C2123",
"kX c #371329",
"lX c #341528",
"zX c #722B22",
"xX c #5E2022",
"cX c #3E1220",
"vX c #3C1420",
"bX c #3D141F",
"nX c #592021",
"mX c #3F1220",
"MX c #401322",
"NX c #3C1323",
/* pixels */
"                                                                ",
"                                                                ",
"                              . X o O                           ",
"                          + @ # $ % & X                         ",
"                        * = - ; : > , < 1 2                     ",
"                      3 4 5 6 7 8 9 0 q w e r                   ",
"                      t y u i p a s d f g h                     ",
"                    j k l h z x c v b n m M N                   ",
"                    B V C Z A S D F G v H J K                   ",
"                      L P I U Y T R E W Q ! ~                   ",
"                        ^ / ( ) _ ` ' ] [ {                     ",
"                          } |  ...X.o.f O.                      ",
"                            +.@.U #.$.%.                        ",
"                              &.*.=.-.;.                        ",
"                              :.>.,.<.1.2.                      ",
"                            3.4.5.6.7.8.9.0.                    ",
"                            q.w.e.r.t.y.u.i.                    ",
"                          p.a.s.d.f.g.h.j.k.                    ",
"                          l.z.x.c.v.b.n.m.                      ",
"                          M.N.B.| V.C.Z.                        ",
"                          A.S.D.F.G.H.J.                        ",
"                    K.L.  P.I.U.Y.T.R.E.                        ",
"                  W.Q.!.~.^./.(.)._.`.'.].[.{.                  ",
"                  }.|. X.XXXoXOX+X@X#X$X%X&X*X=X                ",
"                  -X;X:X>X,X<X1X2X3X4X5X6X7X8X9X                ",
"                    0XqXwXeXrXtXyXuXiXpXaXsXdXfX                ",
"                    gXhXjXkX            lXzXxXcX                ",
"                      vXbX              -XnXmX                  ",
"                                          MXNX                  ",
"                                                                ",
"                                                                ",
"                                                                "
};
