/* XPM */
static char *xpm_[] = {
/* columns rows colors chars-per-pixel */
"32 32 123 2 ",
"   c #1F0501",
".  c #160A06",
"X  c #270503",
"o  c #380F06",
"O  c #350E0E",
"+  c #390D0D",
"@  c #2D130B",
"#  c #321105",
"$  c #321208",
"%  c #291410",
"&  c #3D131F",
"*  c #150E2E",
"=  c #0E0F34",
"-  c #120F33",
";  c #1A0B35",
":  c #160B3C",
">  c #1E0938",
",  c #0C1234",
"<  c #07133C",
"1  c #10103A",
"2  c #3C1322",
"3  c #3A162C",
"4  c #230530",
"5  c #200834",
"6  c #20083B",
"7  c #351830",
"8  c #4C0C06",
"9  c #470E0D",
"0  c #4B0C0A",
"q  c #520807",
"w  c #54070B",
"e  c #41111D",
"r  c #5F1E1F",
"t  c #6D1916",
"y  c #641F1A",
"u  c #721614",
"i  c #70171C",
"p  c #5A250E",
"a  c #4E2816",
"s  c #4F281A",
"d  c #552715",
"f  c #592613",
"g  c #532815",
"h  c #532619",
"j  c #5D201D",
"k  c #532919",
"l  c #662C15",
"z  c #6A2A11",
"x  c #732B1D",
"c  c #540422",
"v  c #560D38",
"b  c #5D0938",
"n  c #670626",
"m  c #67072C",
"M  c #6A052B",
"N  c #61082F",
"B  c #6F1620",
"V  c #621C23",
"C  c #691A21",
"Z  c #650533",
"A  c #6A0433",
"S  c #4F2222",
"D  c #4B232A",
"F  c #5A2122",
"G  c #6E2B27",
"H  c #7B2521",
"J  c #732A23",
"K  c #753D25",
"L  c #7A3C24",
"P  c #763D29",
"I  c #140B43",
"U  c #180A48",
"Y  c #061441",
"T  c #5C0A40",
"R  c #5A0948",
"E  c #8B1E0E",
"W  c #8A210C",
"Q  c #852311",
"!  c #892013",
"~  c #80241E",
"^  c #9C4C2D",
"/  c #9E502F",
"(  c #9C4F33",
")  c #9A5135",
"_  c #A44925",
"`  c #A04B2C",
"'  c #B75D3B",
"]  c #9C4845",
"[  c #924D4A",
"{  c #AF725B",
"}  c #A4776F",
"|  c #A17777",
" . c #AA7371",
".. c #D66F62",
"X. c #D56F6A",
"o. c #D86F6F",
"O. c #CE736B",
"+. c #D66E73",
"@. c #489848",
"#. c #271D9A",
"$. c #1E239F",
"%. c #343F8B",
"&. c #262193",
"*. c #2B438F",
"=. c #264395",
"-. c #2A4293",
";. c #24449B",
":. c #3653A1",
">. c #3F52A1",
",. c #3355AB",
"<. c #3A51AA",
"1. c #2D56B3",
"2. c #3055B3",
"3. c #3851B7",
"4. c #4151A0",
"5. c #F6AE8F",
"6. c #FBAC8E",
"7. c #FBAB94",
"8. c #FCA99A",
"9. c #F1B193",
"0. c #C1A6A6",
"q. c #FEA6A0",
"w. c #FFF7EE",
/* pixels */
"@.@.@.@.@.@.@.@.@.@.@.@.@.@.@.@.@.@.@.@.@.@.@.@.@.@.@.@.@.@.@.@.",
"@.@.@.@.@.@.@.@.@.@.@.@.@.@.@.@.@.@.@.@.@.@.@.@.@.@.@.@.@.@.@.@.",
"@.@.@.@.@.@.@.@.@.@.@.@.@.@.@.@ @ @ @ @.@.@.@.@.@.@.@.@.@.@.@.@.",
"@.@.@.@.@.@.@.@.@.@.@.@.@.@ # d K P s $ @.@.@.@.@.@.@.@.@.@.@.@.",
"@.@.@.@.@.@.@.@.@.@.@.@.f L ( L k # # g # @ @.@.@.@.@.@.@.@.@.@.",
"@.@.@.@.@.@.@.@.@.@.@.k ` ' L g # # d L ) a @ @.@.@.@.@.@.@.@.@.",
"@.@.@.@.@.@.@.@.@.@.@.f ' L o # k P ( f / # @.@.@.@.@.@.@.@.@.@.",
"@.@.@.@.@.@.@.@.@.@.@ ) L + ] [ k h ) # L ) @ @.@.@.@.@.@.@.@.@.",
"@.@.@.@.@.@.@.@.@.@.@ K $ c X.  . X L f # K @ @.@.@.@.@.@.@.@.@.",
"@.@.@.@.@.@.@.@.@.@.@.@ O m 7.l 0.O.p { a @ % @.@.@.@.@.@.@.@.@.",
"@.@.@.@.@.@.@.@.@.@.@.@.Z q.5.z w.5.5.9.$ @ @.@.@.@.@.@.@.@.@.@.",
"@.@.@.@.@.@.@.@.@.@.@.@.@.M 7.7.5.6.6.d % @.@.@.@.@.@.@.@.@.@.@.",
"@.@.@.@.@.@.@.@.@.@.@.@.@.@.M 7.7.7.o.+ @.@.@.@.@.@.@.@.@.@.@.@.",
"@.@.@.@.@.@.@.@.@.@.@.@.@.@.@.b M ..M v @.@.@.@.@.@.@.@.@.@.@.@.",
"@.@.@.@.@.@.@.@.@.@.@.@.@.@.@.4 B 6.i 6 9 @.@.@.@.@.@.@.@.@.@.@.",
"@.@.@.@.@.@.@.@.@.@.@.@.@.@.I C u W H 5 t 8 @.@.@.@.@.@.@.@.@.@.",
"@.@.@.@.@.@.@.@.@.@.@.@.@.@.: V ~ W 5 V ! 8 @.@.@.@.@.@.@.@.@.@.",
"@.@.@.@.@.@.@.@.@.@.@.@.@.9 } U U  .I 8 E t 0 @.@.@.@.@.@.@.@.@.",
"@.@.@.@.@.@.@.@.@.@.@.@.@.9 I &.3.#.I 0 ! W 0 @.@.@.@.@.@.@.@.@.",
"@.@.@.@.@.@.@.@.@.@.@.@.@.9 : 4.4.&.I 0 w ..0 @.@.@.@.@.@.@.@.@.",
"@.@.@.@.@.@.@.@.@.@.@.@.Z 8.S | D 3 ; w n 7.Z @.@.@.@.@.@.@.@.@.",
"@.@.@.@.@.@.@.@.@.@.@.@.A +.I &.I 7 3 +.7.5.Z @.@.@.@.@.@.@.@.@.",
"@.@.@.@.@.@.@.@.@.@.@.@.@.T -.;.;.*.%.Z 8.8.Z @.@.@.@.@.@.@.@.@.",
"@.@.@.@.@.@.@.@.@.@.@.@.@.= ;.;.;.;.=.R b T @.@.@.@.@.@.@.@.@.@.",
"@.@.@.@.@.@.@.@.@.@.@.@.@.Y 2.1.2.1.1.<.>.%., @.@.@.@.@.@.@.@.@.",
"@.@.@.@.@.@.@.@.@.@.@.@., :.,.,.,.,.,.,.*.< , @.@.@.@.@.@.@.@.@.",
"@.@.@.@.@.@.@.@.@.@.@.@.@.= = * = , , = 1 , @.@.@.@.@.@.@.@.@.@.",
"@.@.@.@.@.@.@.@.@.@.@.@.@.2 r ^ e F x G 2 @.@.@.@.@.@.@.@.@.@.@.",
"@.@.@.@.@.@.@.@.@.@.@.@.2 J ^ x y _ _ x & @.@.@.@.@.@.@.@.@.@.@.",
"@.@.@.@.@.@.@.@.@.@.@.@.2 e e e ` _ J F 2 @.@.@.@.@.@.@.@.@.@.@.",
"@.@.@.@.@.@.@.@.@.@.@.@.@.@.@.2 r y e 2 @.@.@.@.@.@.@.@.@.@.@.@.",
"@.@.@.@.@.@.@.@.@.@.@.@.@.@.@.@.@.@.@.@.@.@.@.@.@.@.@.@.@.@.@.@."
};
