/* XPM */
static char *bdba609612cb4bf88f8f8ec5c3e2130fvVB8HzcnDmK4xtxa[] = {
/* columns rows colors chars-per-pixel */
"32 32 147 2 ",
"   c #489848",
".  c white",
"X  c #F3F3F3",
"o  c #F4F4F4",
"O  c #F9FBFB",
"+  c #F8FAF9",
"@  c #F9F9F9",
"#  c #F9F9FA",
"$  c #F8F8F9",
"%  c #F8F8F8",
"&  c #F6F6F8",
"*  c #E1DBD7",
"=  c #F6DECB",
"-  c #FBE0CA",
";  c #FBF5EB",
":  c #FAF9F4",
">  c #F9F8F7",
",  c #F7F7F6",
"<  c #F3E7DA",
"1  c #F6E1CB",
"2  c #FDE1CA",
"3  c #FEE2CA",
"4  c #FEE7D1",
"5  c #FEE8D4",
"6  c #FBF4EB",
"7  c #F9FAF8",
"8  c #E6E4E3",
"9  c #F8E6DA",
"0  c black",
"q  c #FAE2CD",
"w  c #FBF1E5",
"e  c #FAFBF6",
"r  c #F2F0F0",
"t  c #F7E5D8",
"y  c #FEE3CA",
"u  c #FEE2C9",
"i  c #FCE2CB",
"p  c #FCF2E7",
"a  c #FBFCF9",
"s  c #F6F7F5",
"d  c #F5E5D6",
"f  c #FEE3C9",
"g  c #FCE2C9",
"h  c #FDE2C9",
"j  c #FEE1CA",
"k  c #FDE1CB",
"l  c #FAF0E7",
"z  c #FAFAF8",
"x  c #F2F4F2",
"c  c #F9F4EE",
"v  c #F1E0C7",
"b  c #F6E3CC",
"n  c #FDEFE4",
"m  c #FEF3EA",
"M  c #FAF7F4",
"N  c gray98",
"B  c #ACF58A",
"V  c #E1FBD4",
"C  c #5FC5CC",
"Z  c #4DAED1",
"A  c #F2F4ED",
"S  c #F7F5EF",
"D  c #FAF8F8",
"F  c #E7E9EB",
"G  c #628EA1",
"H  c #448396",
"J  c #A3F580",
"K  c #12A3A2",
"L  c #00A0D4",
"P  c #004F62",
"I  c #06231E",
"U  c #00A0D2",
"Y  c #BDE9AB",
"T  c #12A2A2",
"R  c #009FD3",
"E  c #019FD4",
"W  c #009FD4",
"Q  c #03799C",
"!  c #096578",
"~  c #144B5F",
"^  c #0284AE",
"/  c #019FD5",
"(  c #009ED4",
")  c #01A0D6",
"_  c #04A0D2",
"`  c #EBDDC8",
"'  c #EDE0D4",
"]  c #1D5B07",
"[  c #4B8835",
"{  c #446472",
"}  c #0885B0",
"|  c #009ED3",
" . c #02A0D3",
".. c #E8D8CA",
"X. c #33A7CE",
"o. c #009ED2",
"O. c #019FD3",
"+. c #5ABFE3",
"@. c #CBE8F7",
"#. c #F6E6D7",
"$. c #3FB3D9",
"%. c #009DD2",
"&. c #019ED3",
"*. c #59BEE0",
"=. c #CAE5EF",
"-. c #F5E6DA",
";. c #51ABCC",
":. c #0B9BCD",
">. c #009FD2",
",. c #2981A2",
"<. c #D0E1EE",
"1. c #F1EAE6",
"2. c #3A77C6",
"3. c #006CCA",
"4. c #006FCE",
"5. c #006ECD",
"6. c #006DCD",
"7. c #0070CD",
"8. c #006FCC",
"9. c #003E7C",
"0. c #D0E0EF",
"q. c #EFEDEB",
"w. c #0163D5",
"e. c #0063D5",
"r. c #0062D5",
"t. c #0162D5",
"y. c #0064D5",
"u. c #20579E",
"i. c #CFE0F1",
"p. c #0262D4",
"a. c #97A8B4",
"s. c #A6B7C5",
"d. c #0363D5",
"f. c #0064D4",
"g. c #0164D8",
"h. c #0164D4",
"j. c #FDEDDE",
"k. c #FBE4CB",
"l. c #F9EADA",
"z. c #FDE3CB",
"x. c #FDEEDE",
"c. c #FAE1C9",
"v. c #FDEEDF",
"b. c #F7DFC8",
"n. c #463930",
"m. c #A19E9E",
"M. c #090909",
/* pixels */
"                                                                ",
"                    . .         X o                             ",
"                    o o O + @ # $ %                             ",
"                  & @ * = - ; : > %                             ",
"                  , < 1 2 3 4 5 6 7                             ",
"                  8 9 0 3 3 0 q w e                             ",
"                  r t y u u i i p a                             ",
"                  s d f g h j k l z                             ",
"                  x c c v b n m M N B B B                       ",
"                V C Z c A S D F G H J B B B                     ",
"                J K L L L L L L P I J U J B                     ",
"                Y T R E R W L L Q ! J U U B B                   ",
"                ~ ^ / ( W L R R ) _ B ` ' ] [                   ",
"                { } / | L L R R )  .B ' ' [ [                   ",
"                ..X.o.| R O.W W E L +.@.' [                     ",
"                #.$.%.| | &.W W E L *.=.@.B                     ",
"                -.;.:.W %.%.o.o.R >.,.@.<.                      ",
"                1.2.3.4.5.6.5.5.7.8.9.@.0.                      ",
"                q.2.w.e.r.t.t.e.y.y.u.@.i.                      ",
"                N 2.p.2.2.2.2.2.2.y.2.a.s.                      ",
"                  2.d.2.        2.f.2.a.a.                      ",
"                  2.g.2.        2.h.2.                          ",
"                  2.2.2.        2.h.2.                          ",
"                    j.k.        2.2.2.                          ",
"                    j.k.        l.k.                            ",
"                    j.k.        j.z.                            ",
"                    j.k.        x.c.                            ",
"                    X X         v.b.                            ",
"                    n.m.        X X                             ",
"                    0 0         n.m.                            ",
"                  0 M.0         0 0                             ",
"                              0 M.0                             "
};
