/* XPM */
static char *xpm_[] = {
/* columns rows colors chars-per-pixel */
"32 32 240 2 ",
"   c #489848",
".  c #2A140D",
"X  c #2A140B",
"o  c #2B140A",
"O  c #2B120D",
"+  c #2C1407",
"@  c #532616",
"#  c #753C27",
"$  c #783D26",
"%  c #542717",
"&  c #301209",
"*  c #2C140D",
"=  c #2B140D",
"-  c #2E1408",
";  c #4E271B",
":  c #2F100A",
">  c #311107",
",  c #542615",
"<  c #793D20",
"1  c #9D4F32",
"2  c #7C3B22",
"3  c #532718",
"4  c #2C120B",
"5  c #542617",
"6  c #9C4F31",
"7  c #783D24",
"8  c #522716",
"9  c #311306",
"0  c #2F1406",
"q  c #532717",
"w  c #7E3D25",
"e  c #BD5E3B",
"r  c #9F4E30",
"t  c #552714",
"y  c #341105",
"u  c #995036",
"i  c #5B250D",
"p  c #9B5032",
"a  c #512913",
"s  c #331206",
"d  c #331207",
"f  c #7B3B1E",
"g  c #B65E3D",
"h  c #5A2610",
"j  c #994F33",
"k  c #783C24",
"l  c #340F04",
"z  c #995131",
"x  c #552412",
"c  c #562514",
"v  c #974D43",
"b  c #994B44",
"n  c #380F04",
"m  c #7E3A21",
"M  c #984E38",
"N  c #2D140B",
"B  c #2F1208",
"V  c #773C28",
"C  c #351205",
"Z  c #562614",
"A  c #783D27",
"S  c #240303",
"D  c #150906",
"F  c #1D0705",
"G  c #CE7070",
"H  c #52081E",
"J  c #361006",
"K  c #753D29",
"L  c #2D130C",
"P  c #2C1409",
"I  c #311308",
"U  c #AA725A",
"Y  c #5D2410",
"T  c #CC756D",
"R  c #C7A4A4",
"E  c #774539",
"W  c #FAAD98",
"Q  c #63082B",
"!  c #340E0E",
"~  c #29140A",
"^  c #2F1207",
"/  c #F2B092",
"(  c #F8AD87",
")  c #F1B095",
"_  c #FFF7EB",
"`  c #794735",
"'  c #F7AF8C",
"]  c #FCA69C",
"[  c #66072F",
"{  c #2B1407",
"}  c #572512",
"|  c #F8AD8E",
" . c #F7AE8C",
".. c #F6AF8D",
"X. c #FAAE8D",
"o. c #FCAA93",
"O. c #690630",
"+. c #390E09",
"@. c #D56F66",
"#. c #FDAB8B",
"$. c #FCAD8B",
"%. c #FDA996",
"&. c #67082D",
"*. c #650537",
"=. c #6F052E",
"-. c #D86C74",
";. c #6B052E",
":. c #690534",
">. c #420E13",
",. c #220933",
"<. c #6C1A1B",
"1. c #FDAA91",
"2. c #681923",
"3. c #230935",
"4. c #4D0D09",
"5. c #621B21",
"6. c #230830",
"7. c #7F231D",
"8. c #8A200F",
"9. c #731813",
"0. c #651B24",
"q. c #19093D",
"w. c #520C03",
"e. c #852214",
"r. c #641B25",
"t. c #2C062B",
"y. c #882218",
"u. c #8A1F11",
"i. c #6D1A21",
"p. c #1C0A38",
"a. c #4D0C09",
"s. c #721713",
"d. c #872114",
"f. c #6F1620",
"g. c #69052D",
"h. c #6A0331",
"j. c #6C042D",
"k. c #B5705F",
"l. c #43100A",
"z. c #510B04",
"x. c #8A200D",
"c. c #D96E63",
"v. c #FDAA94",
"b. c #F8AF90",
"n. c #FDAA99",
"m. c #620934",
"M. c #190841",
"N. c #4E0B06",
"B. c #500A0F",
"V. c #670828",
"C. c #FAAA94",
"Z. c #610931",
"A. c #160A47",
"S. c #3F1112",
"D. c #1C0A31",
"F. c #431127",
"G. c #630638",
"H. c #610635",
"J. c #5A1C27",
"K. c #150D42",
"L. c #170B3A",
"P. c #37182B",
"I. c #39162B",
"U. c #160A4E",
"Y. c #2B1D92",
"T. c #140A4D",
"R. c #0F0C48",
"E. c #3D1322",
"W. c #3D1423",
"Q. c #351625",
"!. c #0E1231",
"~. c #091437",
"^. c #18275F",
"/. c #28428F",
"(. c #274291",
"). c #264299",
"_. c #3352B4",
"`. c #254296",
"'. c #152762",
"]. c #14112B",
"[. c #A14C2A",
"{. c #A34A2D",
"}. c #42131E",
"|. c #3D1421",
" X c #51242E",
".X c #1D2652",
"XX c #132B61",
"oX c #274290",
"OX c #224498",
"+X c #234598",
"@X c #224598",
"#X c #20449C",
"$X c #3055B2",
"%X c #3154B0",
"&X c #414F95",
"*X c #9E4C31",
"=X c #762A1B",
"-X c #431120",
";X c #43111D",
":X c #682C2E",
">X c #1E2757",
",X c #3254A6",
"<X c #224499",
"1X c #3153B0",
"2X c #3054B2",
"3X c #2F53B2",
"4X c #3055B0",
"5X c #3354A8",
"6X c #21284E",
"7X c #9D4C31",
"8X c #5F1F23",
"9X c #3E1321",
"0X c #40121A",
"qX c #732B1E",
"wX c #682C2B",
"eX c #101131",
"rX c #061340",
"tX c #274491",
"yX c #254594",
"uX c #244594",
"iX c #28448E",
"pX c #07133E",
"aX c #121030",
"sX c #692E2A",
"dX c #722B21",
"fX c #40111A",
"gX c #3E1223",
"hX c #5E1F23",
"jX c #722B24",
"kX c #3D141D",
"lX c #3D1225",
"zX c #5C2028",
"xX c #5A1F26",
"cX c #3F131C",
"vX c #40141D",
"bX c #5A2127",
"nX c #3D121F",
"mX c #401424",
"MX c #3A1524",
"NX c #3F1123",
/* pixels */
"                                                                ",
"                                                                ",
"                              . X o O                           ",
"                            + @ # $ % & *                       ",
"                        = - ; : > , < 1 2 3                     ",
"                      4 5 6 7 8 9 0 q w e r t                   ",
"                        y u i p 7 a s d f g h                   ",
"                      d j k l z x c v b n m M N                 ",
"                      B V C Z A S D F G H J K L                 ",
"                      P I @ U Y T R E W Q ! P                   ",
"                        ~ ^ / ( ) _ ` ' ] [                     ",
"                          { } |  ...X.o.O.                      ",
"                            +.@.#.$.%.&.                        ",
"                            *.=.-.;.:.                          ",
"                          >.,.<.1.2.3.                          ",
"                        4.5.6.7.8.9.0.q.                        ",
"                        w.e.r.t.y.u.i.p.                        ",
"                        a.s.d.f.g.h.j.k.l.                      ",
"                          z.x.c.v.b.n.m.M.                      ",
"                            N.B.V.C.v.Z.A.                      ",
"                            S.D.F.G.H.J.K.                      ",
"                            L.P.I.U.Y.T.R.  E.W.                ",
"                      Q.!.~.^./.(.)._.`.'.].[.{.}.              ",
"                    |. X.XXXoXOX+X@X#X$X%X&X*X=X-X              ",
"                    ;X:X>X,X<X1X2X3X3X4X5X6X7X8X9X              ",
"                    0XqXwXeXrXtXyXuXiXpXaXsXdXfX                ",
"                    gXhXjXkX            lXzXxXcX                ",
"                      vXbXnX              mXMX                  ",
"                      E.NX                                      ",
"                                                                ",
"                                                                ",
"                                                                "
};
