/* XPM */
static char *xpm_[] = {
/* columns rows colors chars-per-pixel */
"32 32 124 2 ",
"   c #1E0502",
".  c #160805",
"X  c #240402",
"o  c #380D07",
"O  c #360E0A",
"+  c #2E1206",
"@  c #2C140C",
"#  c #341205",
"$  c #311209",
"%  c #370D13",
"&  c #3D0F17",
"*  c #170F26",
"=  c #1C0A33",
"-  c #1F053C",
";  c #160D3B",
":  c #1A0A39",
">  c #0C1134",
",  c #05133D",
"<  c #0A143B",
"1  c #24072F",
"2  c #3D1323",
"3  c #3A1826",
"4  c #3A162C",
"5  c #210732",
"6  c #210837",
"7  c #4E0D06",
"8  c #450F0B",
"9  c #4A0E0A",
"0  c #550B07",
"q  c #430F11",
"w  c #4A0C16",
"e  c #52061E",
"r  c #44111B",
"t  c #661B1D",
"y  c #6C181C",
"u  c #741715",
"i  c #59250E",
"p  c #542615",
"a  c #5A2712",
"s  c #542815",
"d  c #512718",
"f  c #512818",
"g  c #652C15",
"h  c #642F19",
"j  c #7B251F",
"k  c #742B1C",
"l  c #7D3B1F",
"z  c #421229",
"x  c #5C1F25",
"c  c #5E0932",
"v  c #5D0A3D",
"b  c #6A0627",
"n  c #67072F",
"m  c #6A072D",
"M  c #66092F",
"N  c #651B22",
"B  c #691A22",
"V  c #640733",
"C  c #6B0532",
"Z  c #64063A",
"A  c #532320",
"S  c #5B2025",
"D  c #55212A",
"F  c #582029",
"G  c #602021",
"H  c #773C27",
"J  c #7A3B23",
"K  c #763D29",
"L  c #0F0C4A",
"P  c #150A43",
"I  c #071340",
"U  c #081240",
"Y  c #110B51",
"T  c #881F11",
"R  c #852215",
"E  c #8B2110",
"W  c #82231C",
"Q  c #9F4F2E",
"!  c #9B4E33",
"~  c #975234",
"^  c #9C5033",
"/  c #A34A2C",
"(  c #B55F3A",
")  c #974C44",
"_  c #984945",
"`  c #AD715D",
"'  c #AB7564",
"]  c #A27572",
"[  c #D96E6F",
"{  c #CD7367",
"}  c #D27066",
"|  c #D07168",
" . c #DC6976",
".. c #D07172",
"X. c #489848",
"o. c #231F93",
"O. c #29208F",
"+. c #22219C",
"@. c #284387",
"#. c #2B428C",
"$. c #264393",
"%. c #284390",
"&. c #21449A",
"*. c #2F54AE",
"=. c #3252A7",
"-. c #3354AC",
";. c #3A53AE",
":. c #2E54B4",
">. c #3154B0",
",. c #3851B2",
"<. c #3850BF",
"1. c #D26E80",
"2. c #CAA59F",
"3. c #F7AF8B",
"4. c #FBAC8D",
"5. c #F4B08D",
"6. c #FDA797",
"7. c #F6AD91",
"8. c #FCAB93",
"9. c #FCA79D",
"0. c #FDA998",
"q. c #F1B092",
"w. c #F1AAA7",
"e. c #FFF6EC",
/* pixels */
"X.X.X.X.X.X.X.X.X.X.X.X.X.X.X.X.X.X.X.X.X.X.X.X.X.X.X.X.X.X.X.X.",
"X.X.X.X.X.X.X.X.X.X.X.X.X.X.X.X.X.X.X.X.X.X.X.X.X.X.X.X.X.X.X.X.",
"X.X.X.X.X.X.X.X.X.X.X.X.X.X.X.@ @ @ @ X.X.X.X.X.X.X.X.X.X.X.X.X.",
"X.X.X.X.X.X.X.X.X.X.X.X.X.X.+ f H H f + @ X.X.X.X.X.X.X.X.X.X.X.",
"X.X.X.X.X.X.X.X.X.X.X.X.@ # f + + p J ^ J a X.X.X.X.X.X.X.X.X.X.",
"X.X.X.X.X.X.X.X.X.X.X.@ s ! J a $ @ p l ( / a X.X.X.X.X.X.X.X.X.",
"X.X.X.X.X.X.X.X.X.X.X.X.# ~ i ^ J p # $ J ( a X.X.X.X.X.X.X.X.X.",
"X.X.X.X.X.X.X.X.X.X.X.@ ~ l # ^ p p ) _ o J ! $ X.X.X.X.X.X.X.X.",
"X.X.X.X.X.X.X.X.X.X.X.@ K # p K X .   ..e O K $ X.X.X.X.X.X.X.X.",
"X.X.X.X.X.X.X.X.X.X.X.@ @ d ` i { 2.h 8.m % @ X.X.X.X.X.X.X.X.X.",
"X.X.X.X.X.X.X.X.X.X.X.X.@ $ q.3.q.e.g 4.6.M X.X.X.X.X.X.X.X.X.X.",
"X.X.X.X.X.X.X.X.X.X.X.X.X.@ p 8.4.3.3.8.m X.X.X.X.X.X.X.X.X.X.X.",
"X.X.X.X.X.X.X.X.X.X.X.X.X.X.o } 4.8.0.m X.X.X.X.X.X.X.X.X.X.X.X.",
"X.X.X.X.X.X.X.X.X.X.X.X.X.X.Z C  .m C X.X.X.X.X.X.X.X.X.X.X.X.X.",
"X.X.X.X.X.X.X.X.X.X.X.X.X.q = B 8.B 6 X.X.X.X.X.X.X.X.X.X.X.X.X.",
"X.X.X.X.X.X.X.X.X.X.X.X.9 t 1 j E u N ; X.X.X.X.X.X.X.X.X.X.X.X.",
"X.X.X.X.X.X.X.X.X.X.X.X.7 R t 1 W T B : & X.X.X.X.X.X.X.X.X.X.X.",
"X.X.X.X.X.X.X.X.X.X.X.7 u R 9 = ] : P ] - v X.X.X.X.X.X.X.X.X.X.",
"X.X.X.X.X.X.X.X.X.X.X.0 } 0 8 P +.<.+.L P w.C X.X.X.X.X.X.X.X.X.",
"X.X.X.X.X.X.X.X.X.X.X.C 9.b w P O.,.;.L P ..C X.X.X.X.X.X.X.X.X.",
"X.X.X.X.X.X.X.X.X.X.n 9.4.[ V - 4 A ' A : v X.X.X.X.X.X.X.X.X.X.",
"X.X.X.X.X.X.X.X.X.X.n 8.8.n Z z 3 P O.Y P X.X.X.X.X.X.X.X.X.X.X.",
"X.X.X.X.X.X.X.X.X.X.X.V c : #.%.$.$.&.$.U X.X.X.X.X.X.X.X.X.X.X.",
"X.X.X.X.X.X.X.X.X.X.X.X.X.< -.:.:.:.:.&.%.< X.X.X.X.X.X.X.X.X.X.",
"X.X.X.X.X.X.X.X.X.X.X.X.X.I =.:.:.:.:.:.&., X.X.X.X.X.X.X.X.X.X.",
"X.X.X.X.X.X.X.X.X.X.X.X.< @.&.*.>.*.*.-.=.> 2 X.X.X.X.X.X.X.X.X.",
"X.X.X.X.X.X.X.X.X.X.X.X.X.> > > > > > > * ! / w X.X.X.X.X.X.X.X.",
"X.X.X.X.X.X.X.X.X.X.X.X.X.X.3 x x 2 S k / k x 2 X.X.X.X.X.X.X.X.",
"X.X.X.X.X.X.X.X.X.X.X.X.X.X.X.2 2 2 x x x r 2 X.X.X.X.X.X.X.X.X.",
"X.X.X.X.X.X.X.X.X.X.X.X.X.X.X.X.X.3 2 2 2 2 X.X.X.X.X.X.X.X.X.X.",
"X.X.X.X.X.X.X.X.X.X.X.X.X.X.X.X.X.X.X.X.X.X.X.X.X.X.X.X.X.X.X.X.",
"X.X.X.X.X.X.X.X.X.X.X.X.X.X.X.X.X.X.X.X.X.X.X.X.X.X.X.X.X.X.X.X."
};
