/* XPM */
static char *xpm_[] = {
/* columns rows colors chars-per-pixel */
"32 32 252 2 ",
"   c #489848",
".  c #2B140D",
"X  c #2D130C",
"o  c #2C130E",
"O  c #2A140D",
"+  c #2B150E",
"@  c #522716",
"#  c #773D25",
"$  c #783C24",
"%  c #532715",
"&  c #301109",
"*  c #2D140D",
"=  c #2C130D",
"-  c #2F120B",
";  c #522718",
":  c #2F1207",
">  c #2F1208",
",  c #552817",
"<  c #7B3C22",
"1  c #9F4F2E",
"2  c #7E3A20",
"3  c #522717",
"4  c #2A130C",
"5  c #542617",
"6  c #A04D32",
"7  c #7C3C21",
"8  c #572616",
"9  c #311307",
"0  c #542615",
"q  c #7B3B21",
"w  c #BA5C37",
"e  c #9F4D2A",
"r  c #50281B",
"t  c #321206",
"y  c #A04E33",
"u  c #582615",
"i  c #A04F2C",
"p  c #793C24",
"a  c #522816",
"s  c #311308",
"d  c #32120A",
"f  c #7D3B22",
"g  c #B95E39",
"h  c #562616",
"j  c #2D1309",
"k  c #9D512F",
"l  c #7A3B22",
"z  c #331306",
"x  c #9D512E",
"c  c #56251C",
"v  c #994945",
"b  c #9B4846",
"n  c #351108",
"m  c #7C3D1F",
"M  c #9E4E32",
"N  c #773E25",
"B  c #552714",
"V  c #7B3B23",
"C  c #220603",
"Z  c #120A09",
"A  c #1A0604",
"S  c #D47066",
"D  c #550420",
"F  c #321209",
"G  c #7C3B29",
"H  c #29150C",
"J  c #29140D",
"K  c #2E140B",
"L  c #52271B",
"P  c #AF725B",
"I  c #5D2414",
"U  c #D47067",
"Y  c #C0A6A3",
"T  c #672C18",
"R  c #F9AE8F",
"E  c #67082D",
"W  c #301012",
"Q  c #2A130E",
"!  c #2C1310",
"~  c #311208",
"^  c #F3B091",
"/  c #FAAD8B",
"(  c #F8AE8E",
")  c #FFFBF0",
"_  c #682D11",
"`  c #FCAD8D",
"'  c #FBAA99",
"]  c #5F0933",
"[  c #2A150E",
"{  c #522915",
"}  c #F9AD8E",
"|  c #FAAE8D",
" . c #F7AF8C",
".. c #FAAE8B",
"X. c #FDAA95",
"o. c #610A34",
"O. c #34120D",
"+. c #D46F68",
"@. c #FBAC8D",
"#. c #FAAC8D",
"$. c #F9AB95",
"%. c #610A31",
"&. c #5F0839",
"*. c #6D0431",
"=. c #DA6B6A",
"-. c #6B0531",
";. c #620938",
":. c #450D0D",
">. c #180A3B",
",. c #6E191C",
"<. c #FDAB90",
"1. c #6A1A1F",
"2. c #1D0A38",
"3. c #470E08",
"4. c #6C191B",
"5. c #1E0938",
"6. c #842219",
"7. c #8B200D",
"8. c #711915",
"9. c #691A21",
"0. c #170A41",
"q. c #4D0C04",
"w. c #89200E",
"e. c #1E0A35",
"r. c #88210F",
"t. c #862117",
"y. c #671A23",
"u. c #1A0A39",
"i. c #4A0D07",
"p. c #731815",
"a. c #8A210D",
"s. c #4A0C0B",
"d. c #170C3D",
"f. c #A87466",
"g. c #120B46",
"h. c #140C40",
"j. c #AC735D",
"k. c #431107",
"l. c #4D0B05",
"z. c #8D200F",
"x. c #8A2111",
"c. c #4B0C0B",
"v. c #130B4A",
"b. c #241FA1",
"n. c #3751BA",
"m. c #2021A2",
"M. c #150C40",
"N. c #470F0C",
"B. c #4F0A06",
"V. c #D86E65",
"C. c #520909",
"Z. c #460F07",
"A. c #130A49",
"S. c #231F9E",
"D. c #3952AF",
"F. c #3B53AB",
"G. c #160A3F",
"H. c #461008",
"J. c #680432",
"K. c #FCA994",
"L. c #69082B",
"P. c #4C0B0C",
"I. c #190B40",
"U. c #3E1528",
"Y. c #57201D",
"T. c #AC7363",
"R. c #552217",
"E. c #F8AC96",
"W. c #610836",
"Q. c #6B0335",
"!. c #FBAC90",
"~. c #D86D6A",
"^. c #3B1524",
"/. c #381627",
"(. c #100D48",
"). c #261F98",
"_. c #150B42",
"`. c #D56D73",
"'. c #630735",
"]. c #660636",
"[. c #F9AA92",
"{. c #FCA897",
"}. c #640737",
"|. c #2E3F92",
" X c #264393",
".X c #254397",
"XX c #25409B",
"oX c #2B3F91",
"OX c #5C093C",
"+X c #5E093A",
"@X c #63063D",
"#X c #5D0845",
"$X c #274297",
"%X c #23449A",
"&X c #23459A",
"*X c #234694",
"=X c #0E1134",
"-X c #0B113B",
";X c #2C4091",
":X c #3452B0",
">X c #3352B2",
",X c #2E54B5",
"<X c #3054B0",
"1X c #091339",
"2X c #0B1335",
"3X c #081436",
"4X c #244692",
"5X c #3355B0",
"6X c #3255B2",
"7X c #3155B1",
"8X c #3057AF",
"9X c #3256A7",
"0X c #0B1332",
"qX c #12102E",
"wX c #0B1333",
"eX c #0E1132",
"rX c #0D1233",
"tX c #0C1234",
"yX c #0F1130",
"uX c #0F1131",
"iX c #0C1132",
"pX c #3C1421",
"aX c #702B25",
"sX c #722B1D",
"dX c #5B2021",
"fX c #41121C",
"gX c #A14A27",
"hX c #5C1F23",
"jX c #3D1324",
"kX c #411221",
"lX c #732A1E",
"zX c #A7471F",
"xX c #A84822",
"cX c #621E1D",
"vX c #76281A",
"bX c #A44A2A",
"nX c #722B1E",
"mX c #3B1321",
"MX c #3B1323",
"NX c #5A2025",
"BX c #762A1A",
"VX c #A74A1F",
"CX c #A54926",
"ZX c #43101E",
"AX c #3E131D",
"SX c #3C131F",
"DX c #371523",
"FX c #3D1225",
"GX c #41111E",
"HX c #5D2022",
"JX c #5D2023",
"KX c #3E1224",
/* pixels */
"                                                                ",
"                                                                ",
"                              . X o O                           ",
"                            + @ # $ % & *                       ",
"                        = - ; : > , < 1 2 3                     ",
"                      4 5 6 7 8 9 9 0 q w e r                   ",
"                        t y u i p a s d f g h                   ",
"                      j k l z x h c v b n m M o                 ",
"                      j N d B V C Z A S D F G H                 ",
"                      J K L P I U Y T R E W Q                   ",
"                        ! ~ ^ / ( ) _ ` ' ]                     ",
"                          [ { } |  ...X.o.                      ",
"                            O.+.@.#.$.%.                        ",
"                            &.*.=.-.;.                          ",
"                          :.>.,.<.1.2.                          ",
"                        3.4.5.6.7.8.9.0.                        ",
"                        q.w.9.e.r.t.y.u.                        ",
"                      i.p.a.s.d.f.g.h.j.k.                      ",
"                      l.z.x.c.v.b.n.m.M.N.                      ",
"                      B.V.C.Z.A.S.D.F.G.H.                      ",
"                      J.K.L.P.I.U.Y.T.R.E.W.                    ",
"                      Q.!.@.~.^./.(.)._.`.'.                    ",
"                      ].[.{.}.|. X.XXXoXOX                      ",
"                        +X@X#X$X%X%X&X*X=X                      ",
"                      -X;X:X>X,X,X,X,X<X1X                      ",
"                      2X3X4X5X6X6X6X7X8X9X0X                    ",
"                        qXwXeXeXrXtXyXuXiX                      ",
"                          pXaXsXdXfXgXhXjX                      ",
"                          kXlXzXxXcXvXbXnXmX                    ",
"                          MXNXBXVXCXZXAXSXDX                    ",
"                            FXGXHXJXKX                          ",
"                                                                "
};
