/* XPM */
static char *right1714476060[] = {
/* columns rows colors chars-per-pixel */
"32 32 138 2 ",
"   c #489848",
".  c #F4F4F4",
"X  c #F3F3F3",
"o  c white",
"O  c #F8F8F8",
"+  c #F8F8F9",
"@  c #F9F9FA",
"#  c #F9F9F9",
"$  c #F8FAF9",
"%  c #F9FBFB",
"&  c #F9F8F7",
"*  c #FAF9F4",
"=  c #FBF5EB",
"-  c #FBE0CA",
";  c #F6DECB",
":  c #E1DBD7",
">  c #F6F6F8",
",  c #F9FAF8",
"<  c #FBF4EB",
"1  c #FEE8D4",
"2  c #FEE7D1",
"3  c #FEE2CA",
"4  c #FDE1CA",
"5  c #F6E1CB",
"6  c #F3E7DA",
"7  c #F7F7F6",
"8  c #FAFBF6",
"9  c #FBF1E5",
"0  c #FAE2CD",
"q  c black",
"w  c #F8E6DA",
"e  c #E6E4E3",
"r  c #FBFCF9",
"t  c #FCF2E7",
"y  c #FCE2CB",
"u  c #FEE2C9",
"i  c #FEE3CA",
"p  c #F7E5D8",
"a  c #F2F0F0",
"s  c #FAFAF8",
"d  c #FAF0E7",
"f  c #FDE1CB",
"g  c #FEE1CA",
"h  c #FDE2C9",
"j  c #FCE2C9",
"k  c #FEE3C9",
"l  c #F5E5D6",
"z  c #F6F7F5",
"x  c #ACF58A",
"c  c gray98",
"v  c #FAF7F4",
"b  c #FEF3EA",
"n  c #FDEFE4",
"m  c #F6E3CC",
"M  c #F1E0C7",
"N  c #F9F4EE",
"B  c #F2F4F2",
"V  c #A3F580",
"C  c #448396",
"Z  c #628EA1",
"A  c #E7E9EB",
"S  c #FAF8F8",
"D  c #F7F5EF",
"F  c #F2F4ED",
"G  c #4DAED1",
"H  c #5FC5CC",
"J  c #00A0D2",
"K  c #06231E",
"L  c #004F62",
"P  c #00A0D4",
"I  c #12A3A2",
"U  c #096578",
"Y  c #03799C",
"T  c #009FD4",
"R  c #009FD3",
"E  c #019FD4",
"W  c #12A2A2",
"Q  c #4B8835",
"!  c #1D5B07",
"~  c #EDE0D4",
"^  c #EBDDC8",
"/  c #04A0D2",
"(  c #01A0D6",
")  c #009ED4",
"_  c #019FD5",
"`  c #0284AE",
"'  c #02A0D3",
"]  c #009ED3",
"[  c #0885B0",
"{  c #CBE8F7",
"}  c #5ABFE3",
"|  c #019FD3",
" . c #009ED2",
".. c #33A7CE",
"X. c #CAE5EF",
"o. c #59BEE0",
"O. c #019ED3",
"+. c #009DD2",
"@. c #3FB3D9",
"#. c #D0E1EE",
"$. c #2981A2",
"%. c #009FD2",
"&. c #0B9BCD",
"*. c #51ABCC",
"=. c #D0E0EF",
"-. c #003E7C",
";. c #006FCC",
":. c #0070CD",
">. c #006ECD",
",. c #006DCD",
"<. c #006FCE",
"1. c #006CCA",
"2. c #3A77C6",
"3. c #CFE0F1",
"4. c #20579E",
"5. c #0064D5",
"6. c #0063D5",
"7. c #0162D5",
"8. c #0062D5",
"9. c #0163D5",
"0. c #A6B7C5",
"q. c #97A8B4",
"w. c #0262D4",
"e. c #0064D4",
"r. c #0363D5",
"t. c #0164D4",
"y. c #0164D8",
"u. c #FBE4CB",
"i. c #FDEDDE",
"p. c #F9EADA",
"a. c #FDE3CB",
"s. c #FAE1C9",
"d. c #FDEEDE",
"f. c #F7DFC8",
"g. c #FDEEDF",
"h. c #A19E9E",
"j. c #463930",
"k. c #090909",
/* pixels */
"                                                                ",
"                            . X         o o                     ",
"                            O + @ # $ % . .                     ",
"                            O & * = - ; : # >                   ",
"                            , < 1 2 3 4 5 6 7                   ",
"                            8 9 0 q 3 3 q w e                   ",
"                            r t y y u u i p a                   ",
"                            s d f g h j k l z                   ",
"                      x x x c v b n m M N N B                   ",
"                    x x x V C Z A S D F N G H                   ",
"                    x V J V K L P P P P P P I                   ",
"                  x x J J V U Y P P T R E R W                   ",
"                  Q ! ~ ^ x / ( R R P T ) _ `                   ",
"                  Q Q ~ ~ x ' ( R R P P ] _ [                   ",
"                    Q ~ { } P E T T | R ]  ...                  ",
"                    x { X.o.P E T T O.] ] +.@.                  ",
"                      #.{ $.%.R  . .+.+.T &.*.                  ",
"                      =.{ -.;.:.>.>.,.>.<.1.2.                  ",
"                      3.{ 4.5.5.6.7.7.8.6.9.2.                  ",
"                      0.q.2.5.2.2.2.2.2.2.w.2.                  ",
"                      q.q.2.e.2.        2.r.2.                  ",
"                          2.t.2.        2.y.2.                  ",
"                          2.t.2.        2.2.2.                  ",
"                          2.2.2.        u.i.                    ",
"                            u.p.        u.i.                    ",
"                            a.i.        u.i.                    ",
"                            s.d.        u.i.                    ",
"                            f.g.        X X                     ",
"                            X X         h.j.                    ",
"                            h.j.        q q                     ",
"                            q q         q k.q                   ",
"                            q k.q                               "
};
