/* XPM */
static char *_ed84b8ab00848e9bb9f2e9a37a125c2YWGGiBIvwE29rcJd[] = {
/* columns rows colors chars-per-pixel */
"32 32 6 1 ",
"  c #489848",
". c black",
"X c #FFF700",
"o c #FFB300",
"O c #FFFED0",
"+ c #FF9600",
/* pixels */
"                                ",
"                                ",
"                                ",
"                                ",
"                                ",
"                                ",
"                                ",
"                                ",
"                                ",
"                                ",
"                                ",
"               ..               ",
"              .Xo.              ",
"             .OXo+.             ",
"            .OXoo++.            ",
"            .OXooo+.            ",
"            .OXooo+.            ",
"            .XXoo++.            ",
"             .XXo+.             ",
"              .Xo.              ",
"               ..               ",
"                                ",
"                                ",
"                                ",
"                                ",
"                                ",
"                                ",
"                                ",
"                                ",
"                                ",
"                                ",
"                                "
};
