/* XPM */
static char *fa53cdf744a547f6e40f4197165400cbmp1Vc6nU5Ou1OHoP[] = {
/* columns rows colors chars-per-pixel */
"32 32 147 2 ",
"   c #1E2326",
".  c #24292B",
"X  c #2C2E2D",
"o  c #3D2D25",
"O  c #2A2E31",
"+  c #242C30",
"@  c #4C1F0B",
"#  c #46200B",
"$  c #4D230E",
"%  c #642C0E",
"&  c #652D13",
"*  c #71391F",
"=  c #593523",
"-  c #7F563F",
";  c #2B3A40",
":  c #314C4F",
">  c #3F575C",
",  c #3E6B6E",
"<  c #3F6F73",
"1  c #3E7172",
"2  c #41575B",
"3  c #705840",
"4  c #715E56",
"5  c #516C72",
"6  c #52787E",
"7  c #476766",
"8  c #78796C",
"9  c #717273",
"0  c #767B7B",
"q  c #823611",
"w  c #8B3B12",
"e  c #903F16",
"r  c #923E18",
"t  c #8D401A",
"y  c #96491E",
"u  c #8F4723",
"i  c #884925",
"p  c #81492B",
"a  c #914C27",
"s  c #984E2D",
"d  c #8D583C",
"f  c #A54D23",
"g  c #A75327",
"h  c #AA5224",
"j  c #AB532B",
"k  c #AE582F",
"l  c #B2542A",
"z  c #B45A2E",
"x  c #BB5928",
"c  c #A95631",
"v  c #A55E3E",
"b  c #B45930",
"n  c #BD5E31",
"m  c #AF6334",
"M  c #B56335",
"N  c #BE6235",
"B  c #B7663D",
"V  c #BF6F3C",
"C  c #C15F32",
"Z  c #C6622E",
"A  c #C36335",
"S  c #C96537",
"D  c #CE6937",
"F  c #C56738",
"G  c #C96738",
"H  c #C5683C",
"J  c #CC6939",
"K  c #DE723A",
"L  c #D5723E",
"P  c #E6783F",
"I  c #EC7B3F",
"U  c #836A5B",
"Y  c #8A6B5D",
"T  c #AF6A49",
"R  c #B96D4B",
"E  c #B76A47",
"W  c #C76D41",
"Q  c #C3724D",
"!  c #CC7847",
"~  c #D17347",
"^  c #ED7B41",
"/  c #489848",
"(  c #68897B",
")  c #A1897C",
"_  c #BA8C73",
"`  c #DC8951",
"'  c #DA995E",
"]  c #F38146",
"[  c #E48F51",
"{  c #E69B5F",
"}  c #EA9C5E",
"|  c #F79A58",
" . c #F89958",
".. c #C08669",
"X. c #C79360",
"o. c #C89561",
"O. c #D89960",
"+. c #EA9D61",
"@. c #5C7B83",
"#. c #528F8F",
"$. c #5A888D",
"%. c #52918F",
"&. c #538F90",
"*. c #4C9195",
"=. c #539192",
"-. c #5B9394",
";. c #519897",
":. c #519798",
">. c #509899",
",. c #5C9B9B",
"<. c #6D8888",
"1. c #7F888A",
"2. c #7F9686",
"3. c #638990",
"4. c #6C8D90",
"5. c #6A9297",
"6. c #669298",
"7. c #7F9293",
"8. c #4CA0A2",
"9. c #5BA1A8",
"0. c #57B2B6",
"q. c #5FB3B7",
"w. c #5EBABC",
"e. c #64A7AD",
"r. c #64AEB6",
"t. c #61B2B7",
"y. c #62B3B9",
"u. c #63B8BC",
"i. c #64C0BF",
"p. c #5FBEC1",
"a. c #61BCC1",
"s. c #5FC0C2",
"d. c #5BCBCE",
"f. c #5BCFD2",
"g. c #59D1D3",
"h. c #64C4C7",
"j. c #84A2A4",
"k. c #96A3A3",
"l. c #97A9AA",
"z. c #98AAAA",
"x. c #A4B5B5",
"c. c #A9B6B5",
"v. c #C59F89",
"b. c #CC9F8A",
"n. c #C9A795",
"m. c #D7B6A5",
"M. c #D8C7BE",
/* pixels */
"/ / / / / / / / / / / / / / / / / / / / / / / / / / / / / / / / ",
"/ / / / / / / / / / / / / / / / / / / / / / / / / / / / / / / / ",
"/ / / / / / / / / / / / z.z.k.k.z.z.z.z./ / / / / / / / / / / / ",
"/ / / / / / / / / / z.x.-.8.h.2.` m A _ z./ / / / / / / / / / / ",
"/ / / / / / / / / z.&.w.r.@.7 L [ g S F ) z./ / / / / / / / / / ",
"/ / / / / / / / z.,.y.6 : . = ] ! l S S 3 j.z./ / / / / / / / / ",
"/ / / / / / / z.,.e.5 + O O i  .M l S J a i.k.z./ / / / / / / / ",
"/ / / / / / / c.9.$.. O O X z | M l N J h <.,.z./ / / / / / / / ",
"/ / / / / / z.-.u.; O O O o P } b j S D n 8 0.:.z./ / / / / / / ",
"/ / / / / / z.*.3.  O O O o I { z j A J A = e.:.z./ / / / / / / ",
"/ / / / / / z.g.1 O O O O o Z A f r z G n $ p.:.z./ / / / / / / ",
"/ / / / / / z.q.> O O O O o Z j R Q N z h @ 6.%.z./ / / / / / / ",
"/ / / / / / z.d., O O O O o I V q y v R ~ u u.:.z./ / / / / / / ",
"/ / / / / / z.y.2 O O O O o I } b f f t t * 5.=.z./ / / / / / / ",
"/ / / / / / z.g.1 O O O O o I } c j A H z # p.>.z./ / / / / / / ",
"/ / / / / / z.q.2 O O O O o I o.U j S F n $ 6.=.z./ / / / / / / ",
"/ / / / / / l.g.1 O O O O o I O.- j S G A $ a.>.z./ / / / / / / ",
"/ / / / / / z.y.2 O O O O o I +.p l A J C $ 6.#.z./ / / / / / / ",
"/ / / / / / l.g.1 O O O O o I { p l S F n $ s.;.z./ / / / / / / ",
"/ / / / / / z.t.2 O O O O o I X.U j S G A $ 6.=.z./ / / / / / / ",
"/ / / / / / l.f.< O O O O o I ' d j A J N $ a.:.z./ / / / / / / ",
"/ / / / / / z.y.2 O O O O o I } z l A A l % 4.=.z./ / / / / / / ",
"/ / / / / / l.g.1 O O O O o I } k f l z W E ( >.z./ / / / / / / ",
"/ / / / / / z.y.2 O O O O o K V z W Q T s & 4.=.z./ / / / / / / ",
"/ / / / / / z.f.< O O O O o x ~ T s q w h $ a.:.z./ / / / / / / ",
"/ / / / / / z.t.2 O O O O o K y w e n J A $ 5.=.z./ / / / / / / ",
"/ / / / / / z.7.0 9 9 9 9 4 ^ +.z l A G z Y 1.x.z./ / / / / / / ",
"/ / / / / / / / / / / / / M.^ } z l N B n./ / / / / / / / / / / ",
"/ / / / / / / / / / / / / M.^ } k c ../ / / / / / / / / / / / / ",
"/ / / / / / / / / / / / / M.^ { v m./ / / / / / / / / / / / / / ",
"/ / / / / / / / / / / / / / b.v./ / / / / / / / / / / / / / / / ",
"/ / / / / / / / / / / / / / / / / / / / / / / / / / / / / / / / "
};
