/* XPM */
static char *_924f653b19341599f673117dbaf59b9FkiSqo6rNaiT7Rb2[] = {
/* columns rows colors chars-per-pixel */
"32 32 220 2 ",
"   c #489848",
".  c #2A8181",
"X  c #339F9F",
"o  c #5CCCCF",
"O  c #5DCBCF",
"+  c #5DCBD0",
"@  c #2E8D8C",
"#  c #698282",
"$  c #34A2A1",
"%  c #6D959D",
"&  c #53E9E9",
"*  c #6B9FA5",
"=  c #4DF9F9",
"-  c #287978",
";  c #34A09F",
":  c #60BEC2",
">  c #57A7AC",
",  c #3E5459",
"<  c #331403",
"1  c #5CB9BC",
"2  c #6B9CA3",
"3  c #2E8483",
"4  c #378F90",
"5  c #6D969D",
"6  c #5CCDD0",
"7  c #425A5F",
"8  c #411804",
"9  c #722900",
"0  c #A64D1F",
"q  c #90441D",
"w  c #371504",
"e  c #405154",
"r  c #5CB3B8",
"t  c #6D979E",
"y  c #2D7879",
"u  c #489849",
"i  c #5E8188",
"p  c #461A05",
"a  c #A84E1E",
"s  c #BA6745",
"d  c #BE6036",
"f  c #F17F46",
"g  c #F27D41",
"h  c #D36F45",
"j  c #9F4B22",
"k  c #782D05",
"l  c #688F97",
"z  c #5AD0D3",
"x  c #2E7B7B",
"c  c #399193",
"v  c #270E04",
"b  c #863A13",
"n  c #C26A45",
"m  c #B65D37",
"M  c #BC6845",
"N  c #F27E41",
"B  c #C96C46",
"V  c #D46F45",
"C  c #80330A",
"Z  c #100805",
"A  c #5CCBCF",
"S  c #838F8F",
"D  c #4A974C",
"F  c #5CCED2",
"G  c #476267",
"H  c #7B310A",
"J  c #A45430",
"K  c #EA7C46",
"L  c #C26945",
"P  c #AA5A36",
"I  c #BB6746",
"U  c #BB6745",
"Y  c #7D320A",
"T  c #722C05",
"R  c #5F828A",
"E  c #62BBC0",
"W  c #2D7475",
"Q  c #C6D4C6",
"!  c #236C6D",
"~  c #6D959E",
"^  c #280F03",
"/  c #9C4D29",
"(  c #D26F46",
")  c #D16F45",
"_  c #91451E",
"`  c #110804",
"'  c #54E9EB",
"]  c #AFAFAF",
"[  c #338788",
"{  c #3B1704",
"}  c #CE6E46",
"|  c #C26946",
" . c #D16E45",
".. c #B96644",
"X. c #2B1205",
"o. c #698F97",
"O. c #5BD2D5",
"+. c #879595",
"@. c #5AD3D6",
"#. c #A44A1B",
"$. c #F68046",
"%. c #D36F46",
"&. c #CD6E46",
"*. c #7C320B",
"=. c #5D7F86",
"-. c #6D969E",
";. c #1C5252",
":. c #6D8F94",
">. c #88370B",
",. c #88370C",
"<. c #737973",
"1. c #4EF9F8",
"2. c #5FA292",
"3. c #B57A62",
"4. c #BA6845",
"5. c #AF9083",
"6. c #B77356",
"7. c #BA6846",
"8. c #B96D4E",
"9. c #AC978C",
"0. c #7D340D",
"q. c #52EFF0",
"w. c #6C8486",
"e. c #4EF8F9",
"r. c #52F1F1",
"t. c #F07E46",
"y. c #BD6846",
"u. c #BC6945",
"i. c #48CBCB",
"p. c #52F0F0",
"a. c #8F5E47",
"s. c #9D5430",
"d. c #BC6846",
"f. c #D06E46",
"g. c #D26F45",
"h. c #BF6A46",
"j. c #7F330C",
"k. c #59D4D8",
"l. c #6B9AA2",
"z. c #616564",
"x. c #4E3D2F",
"c. c #CE6E45",
"v. c #D37046",
"b. c #BD6845",
"n. c #BE6946",
"m. c #5C8288",
"M. c #6A99A1",
"N. c #59D6D9",
"B. c #6A9FA6",
"V. c #905D45",
"C. c #A35430",
"Z. c #C36A46",
"A. c #5B878D",
"S. c #6B9DA5",
"D. c #626563",
"F. c #523E30",
"G. c #D26E45",
"H. c #D47045",
"J. c #5B858C",
"K. c #6A9DA5",
"L. c #8D5E48",
"P. c #9C5231",
"I. c #51F1F2",
"U. c #F37D41",
"Y. c #BF6946",
"T. c #D16E46",
"R. c #46CCCD",
"E. c #50F1F1",
"W. c #A4491B",
"Q. c #A3542F",
"!. c #E97C46",
"~. c #C06945",
"^. c #AC5B36",
"/. c #EF7E47",
"(. c #BE6845",
"). c #5E7F86",
"_. c #4EF7F7",
"`. c #5FA091",
"'. c #C76D46",
"]. c #C07F61",
"[. c #C66D46",
"{. c #BA9481",
"}. c #C37856",
"|. c #C66D47",
" X c #C5724F",
".X c #B89A8C",
"XX c #7E350D",
"oX c #52EDED",
"OX c #6E8D91",
"+X c #80350E",
"@X c #72766F",
"#X c #9A4316",
"$X c #C16038",
"%X c #9A4B26",
"&X c #D16B38",
"*X c #BB5F37",
"=X c #9E502B",
"-X c #D66D39",
";X c #AF5D38",
":X c #AC5B38",
">X c #D76C34",
",X c #BE6037",
"<X c #BE6137",
"1X c #7B3008",
"2X c #AC5B37",
"3X c #793009",
"4X c #5E8087",
"5X c #6C969E",
"6X c #57DDE0",
"7X c #66AFB6",
"8X c #C36B44",
"9X c #D06F46",
"0X c #D26E46",
"qX c #C06A46",
"wX c #59949B",
"eX c #65AEB6",
"rX c #B5592F",
"tX c #F58046",
"yX c #CF6E46",
"uX c #5E7F87",
/* pixels */
"                                                                ",
"                                                                ",
"                        . X o O + @ .                           ",
"                    # $ % % & % * % % = -                       ",
"                  ; : % > , < < < , 1 2 % 3                     ",
"                4 5 6 7 8 9 0 q q 9 w e r t y                   ",
"              u 6 i p a s d f s s g h j k l z x                 ",
"              c % v b f n m f M s N B V C Z % A S               ",
"            D F G H J K L P f V I N U V Y T R E W Q             ",
"            ! ~ ^ / J K ( P f V I N s ) Y _ ` ~ ' ]             ",
"            [ % { s J K } P f h | N s  .C ..X.o.O.+.            ",
"            @.5 #.s J K s P $.s %.N s &.C s *.=.-.;.            ",
"            @.:.>.>.,.,.>.>.,.>.,.,.>.>.>.>.,.<.-.;.            ",
"            1.2.s 3.4.s 5.s s 6.7.s s 8.s 9.s 0.q.;.            ",
"            @.% 9 9 9 9 9 9 9 9 9 9 9 9 9 9 9 w.-.;.            ",
"            e.r.#.s J t.s P $.y.u.N s s Y  .*.i.p.;.            ",
"            @.% #.a.s.K d.P f f.g.N s s Y h.j.=.-.;.            ",
"            k.l.#.z.x.K c.P f v.g.N U b.Y n.j.m.M.;.            ",
"            N.B.#.V.C.K Z.P f h.g.N U b.Y g.j.A.B.;.            ",
"            @.% #.V.C.K L P f h.g.N U b.Y ) *.=.-.;.            ",
"            N.S.#.D.F.K s d f h.g.N G.H.Y  .j.J.K.;.            ",
"            @.% #.L.P.K s d f U b.N g.g.Y  .*.=.-.;.            ",
"            = I.#.s J K s d f s s U.Y.T.Y s *.R.E.;.            ",
"            @.% W.s Q.!.~.^./.s s g  .(.C s *.).-.;.            ",
"            _.`.'.].[.'.{.'.'.}.|.'.[. X'..X'.XXoX;.            ",
"            @.OX+X+X+X+X+X+X+X+X+X+X+X+X+X+X+X@X-.;.            ",
"            @.~ #X$X%X&X*X=X-X;X:X>X,X<X1X2X3X4X5X;.            ",
"            6X7X#.8XJ K &.P f 9X0XN qXh Y s *.wXeX;.            ",
"            @.% #.b.rXK s P tXyXV N s U Y s *.uX-.;.            ",
"                                                                ",
"                                                                ",
"                                                                "
};
