/* XPM */
static char *_0d033bfd69b408dd8e4aaf0a4d1919ajIzgOhJ34BOuhW4L[] = {
/* columns rows colors chars-per-pixel */
"32 32 17 1 ",
"  c #489848",
". c #869393",
"X c #98AAAA",
"o c #4B914B",
"O c #606060",
"+ c #838E8E",
"@ c #6E7272",
"# c #676969",
"$ c #94A5A5",
"% c #508650",
"& c #7C8585",
"* c #499449",
"= c #636565",
"- c #547C54",
"; c #757C7C",
": c #5E635E",
"> c #4D8D4D",
/* pixels */
"                                ",
"                                ",
"     .X        .X        .X     ",
"    oO+       oO+       oO+     ",
"    @O#$      @O#$      @O#$    ",
"   %OOO&     %OOO&     %OOO&    ",
"  *#OOO=$   *#OOO=$   *#OOO=$   ",
"  -OOOOO;   -OOOOO;   -OOOOO;   ",
" o:OOOOOO>  :OOOOOO>  :OOOOOO>  ",
"                                ",
"                                ",
"                                ",
"     .X        .X        .X     ",
"    oO+       oO+       oO+     ",
"    @O#$      @O#$      @O#$    ",
"   %OOO&     %OOO&     %OOO&    ",
"  *#OOO=$   *#OOO=$   *#OOO=$   ",
"  -OOOOO;   -OOOOO;   -OOOOO;   ",
"  :OOOOOO>  :OOOOOO>  :OOOOOO>  ",
"                                ",
"                                ",
"                                ",
"                                ",
"     .X        .X        .X     ",
"    oO+       oO+       oO+     ",
"    @O#$      @O#$      @O#$    ",
"   %OOO&     %OOO&     %OOO&    ",
"  *#OOO=$   *#OOO=$   *#OOO=$   ",
"  -OOOOO;   -OOOOO;   -OOOOO;   ",
"  :OOOOOO>  :OOOOOO>  :OOOOOO>  ",
"                                ",
"                                "
};
